<mxfile host="app.diagrams.net" modified="2024-05-12T20:50:37.500Z" agent="Mozilla/5.0 (Windows NT 10.0; WOW64) AppleWebKit/537.36 (KHTML, like Gecko) Chrome/94.0.4606.71 Safari/537.36 Core/1.94.225.400 QQBrowser/12.2.5544.400" version="24.3.1" etag="hN6l_KR4wVyG0D8HC4Vf" type="device">
  <diagram id="hxLP2jrl-SQXwu_J2-3T" name="第 1 页">
    <mxGraphModel dx="1967" dy="1296" grid="0" gridSize="10" guides="1" tooltips="1" connect="1" arrows="1" fold="1" page="0" pageScale="1" pageWidth="827" pageHeight="1169" background="none" math="0" shadow="0">
      <root>
        <mxCell id="0" />
        <mxCell id="1" parent="0" />
        <mxCell id="node5" value="&lt;p style=&quot;margin:0px;margin-top:4px;text-align:center;&quot;&gt;&lt;b&gt;CLIApp&lt;/b&gt;&lt;/p&gt;&lt;hr size=&quot;1&quot;&gt;&lt;p style=&quot;margin:0 0 0 4px;line-height:1.6;&quot;&gt;&lt;span style=&quot;background-color: initial;&quot;&gt;+ main(args: String[]): void&lt;/span&gt;&lt;br&gt;&lt;/p&gt;" style="verticalAlign=top;align=left;overflow=fill;fontSize=14;fontFamily=Helvetica;html=1;rounded=0;shadow=0;comic=0;labelBackgroundColor=none;strokeWidth=1;" parent="1" vertex="1">
          <mxGeometry x="539" y="1674" width="192" height="80" as="geometry" />
        </mxCell>
        <mxCell id="node3" value="&lt;p style=&quot;margin: 4px 0px 0px; text-align: center;&quot;&gt;&lt;b style=&quot;&quot;&gt;&lt;font style=&quot;font-size: 14px;&quot;&gt;NumberleModel&lt;/font&gt;&lt;/b&gt;&lt;/p&gt;&lt;hr style=&quot;&quot; size=&quot;1&quot;&gt;&lt;p style=&quot;margin: 0px 0px 0px 4px; line-height: 1.6;&quot;&gt;&lt;font style=&quot;font-size: 14px;&quot;&gt;&lt;span style=&quot;background-color: initial;&quot;&gt;- targetNumber: String&lt;/span&gt;&lt;br&gt;&lt;/font&gt;&lt;/p&gt;&lt;p style=&quot;margin: 0px 0px 0px 4px; line-height: 1.6;&quot;&gt;&lt;font style=&quot;font-size: 14px;&quot;&gt;- currentGuess: StringBuilder&lt;/font&gt;&lt;/p&gt;&lt;p style=&quot;margin: 0px 0px 0px 4px; line-height: 1.6;&quot;&gt;&lt;font style=&quot;font-size: 14px;&quot;&gt;- remainingAttempts: int&lt;/font&gt;&lt;/p&gt;&lt;p style=&quot;margin: 0px 0px 0px 4px; line-height: 1.6;&quot;&gt;&lt;font style=&quot;font-size: 14px;&quot;&gt;- gameWon: boolean&lt;/font&gt;&lt;/p&gt;&lt;p style=&quot;margin: 0px 0px 0px 4px; line-height: 1.6;&quot;&gt;&lt;font style=&quot;font-size: 14px;&quot;&gt;- sameCharsc: StringBuilder&lt;/font&gt;&lt;/p&gt;&lt;p style=&quot;margin: 0px 0px 0px 4px; line-height: 1.6;&quot;&gt;&lt;font style=&quot;font-size: 14px;&quot;&gt;- diffCharsc: StringBuilder&lt;/font&gt;&lt;/p&gt;&lt;p style=&quot;margin: 0px 0px 0px 4px; line-height: 1.6;&quot;&gt;&lt;font style=&quot;font-size: 14px;&quot;&gt;-&amp;nbsp;unuseCharsc: StringBuilder&lt;/font&gt;&lt;/p&gt;&lt;p style=&quot;margin: 0px 0px 0px 4px; line-height: 1.6;&quot;&gt;&lt;font style=&quot;font-size: 14px;&quot;&gt;-&amp;nbsp;useCharsc: StringBuilder&lt;/font&gt;&lt;/p&gt;&lt;p style=&quot;margin: 0px 0px 0px 4px; line-height: 1.6;&quot;&gt;&lt;font style=&quot;font-size: 14px;&quot;&gt;- resChars: StringBuilder&lt;/font&gt;&lt;/p&gt;&lt;p style=&quot;margin: 0px 0px 0px 4px; line-height: 1.6;&quot;&gt;&lt;font style=&quot;font-size: 14px;&quot;&gt;- validFlag: Boolean&lt;/font&gt;&lt;/p&gt;&lt;p style=&quot;margin: 0px 0px 0px 4px; line-height: 1.6;&quot;&gt;&lt;font style=&quot;font-size: 14px;&quot;&gt;- testFlag: Boolean&lt;/font&gt;&lt;/p&gt;&lt;p style=&quot;margin: 0px 0px 0px 4px; line-height: 1.6;&quot;&gt;&lt;font style=&quot;font-size: 14px;&quot;&gt;- randFlag: Boolean&lt;/font&gt;&lt;/p&gt;&lt;p style=&quot;margin: 0px 0px 0px 4px; line-height: 1.6;&quot;&gt;&lt;font style=&quot;font-size: 14px;&quot;&gt;- errmsg: String&lt;br&gt;&lt;/font&gt;&lt;/p&gt;&lt;hr style=&quot;&quot; size=&quot;1&quot;&gt;&lt;p style=&quot;margin: 0px 0px 0px 4px; line-height: 1.6;&quot;&gt;&lt;font style=&quot;font-size: 14px;&quot;&gt;+ initialize(): void&lt;br&gt;&lt;/font&gt;&lt;/p&gt;&lt;p style=&quot;margin: 0px 0px 0px 4px; line-height: 1.6;&quot;&gt;&lt;font style=&quot;font-size: 14px;&quot;&gt;+ processInput(input: String): boolean&lt;br&gt;&lt;/font&gt;&lt;/p&gt;&lt;p style=&quot;margin: 0px 0px 0px 4px; line-height: 1.6;&quot;&gt;+&amp;nbsp;&lt;span style=&quot;background-color: initial; white-space: pre;&quot;&gt;isGameOver&lt;/span&gt;&lt;span style=&quot;background-color: initial;&quot;&gt;():&amp;nbsp;&lt;/span&gt;&lt;span style=&quot;background-color: initial;&quot;&gt;boolean&lt;/span&gt;&lt;/p&gt;&lt;p style=&quot;margin: 0px 0px 0px 4px; line-height: 1.6;&quot;&gt;&lt;/p&gt;&lt;p style=&quot;margin: 0px 0px 0px 4px; line-height: 1.6;&quot;&gt;+&amp;nbsp;&lt;span style=&quot;white-space: pre;&quot; data-slate-fragment=&quot;JTVCJTdCJTIydHlwZSUyMiUzQSUyMnBhcmFncmFwaCUyMiUyQyUyMmNoaWxkcmVuJTIyJTNBJTVCJTdCJTIyaWQlMjIlM0ElMjJ3ZW15OFFLbG9lJTIyJTJDJTIycGFyYUlkeCUyMiUzQTAlMkMlMjJzcmMlMjIlM0ElMjJOdW1iZXJsZVZpZXclMjIlMkMlMjJkc3QlMjIlM0ElMjIlRTYlOTUlQjAlRTUlQUQlOTclRTglQTclODYlRTUlOUIlQkUlMjIlMkMlMjJtZXRhZGF0YSUyMiUzQSUyMiUyMiUyQyUyMm1ldGFEYXRhJTIyJTNBJTVCJTVEJTJDJTIydGV4dCUyMiUzQSUyMmlzR2FtZVdvbiUyMiU3RCU1RCU3RCU1RA==&quot;&gt;isGameWon&lt;/span&gt;&lt;span style=&quot;background-color: initial;&quot;&gt;():&amp;nbsp;&lt;/span&gt;&lt;span style=&quot;background-color: initial;&quot;&gt;boolean&lt;/span&gt;&lt;/p&gt;&lt;p style=&quot;margin: 0px 0px 0px 4px; line-height: 1.6;&quot;&gt;&lt;font style=&quot;font-size: 14px;&quot;&gt;- readFile(filePath: String): String&lt;/font&gt;&lt;/p&gt;&lt;p style=&quot;margin: 0px 0px 0px 4px; line-height: 1.6;&quot;&gt;&lt;font style=&quot;font-size: 14px;&quot;&gt;+ validateExpression(experssion: String): boolean&lt;/font&gt;&lt;/p&gt;&lt;p style=&quot;margin: 0px 0px 0px 4px; line-height: 1.6;&quot;&gt;&lt;font style=&quot;font-size: 14px;&quot;&gt;- processOperator(numbers: Stack&amp;lt;Double&amp;gt;,&amp;nbsp;&lt;/font&gt;&lt;/p&gt;&lt;p style=&quot;margin: 0px 0px 0px 4px; line-height: 1.6;&quot;&gt;&lt;font style=&quot;font-size: 14px;&quot;&gt;operators: Stack&amp;lt;Character&amp;gt;): boolean&lt;/font&gt;&lt;/p&gt;&lt;p style=&quot;margin: 0px 0px 0px 4px; line-height: 1.6;&quot;&gt;&lt;font style=&quot;font-size: 14px;&quot;&gt;- precedence(op: char): int&lt;/font&gt;&lt;/p&gt;&lt;p style=&quot;margin: 0px 0px 0px 4px; line-height: 1.6;&quot;&gt;&lt;font style=&quot;font-size: 14px;&quot;&gt;+ compareStrings(input: String, targetNumber: String): StringBuilder&lt;br&gt;+ startNewGame(): void&lt;br&gt;+ getErrmsg(): String&lt;br&gt;&lt;/font&gt;&lt;/p&gt;&lt;p style=&quot;margin: 0px 0px 0px 4px; line-height: 1.6;&quot;&gt;&lt;font style=&quot;font-size: 14px;&quot;&gt;+&amp;nbsp;&lt;span style=&quot;white-space: pre;&quot; data-slate-fragment=&quot;JTVCJTdCJTIydHlwZSUyMiUzQSUyMnBhcmFncmFwaCUyMiUyQyUyMmNoaWxkcmVuJTIyJTNBJTVCJTdCJTIyaWQlMjIlM0ElMjJSZUc3MndsV3hlJTIyJTJDJTIycGFyYUlkeCUyMiUzQTAlMkMlMjJzcmMlMjIlM0ElMjJnZXRSZXNDaGFycyUyMiUyQyUyMmRzdCUyMiUzQSUyMmdldFJlc0NoYXJzJTIyJTJDJTIybWV0YWRhdGElMjIlM0ElMjIlMjIlMkMlMjJtZXRhRGF0YSUyMiUzQSU1QiU1RCUyQyUyMnRleHQlMjIlM0ElMjJnZXRUYXJnZXROdW1iZXIlMjIlN0QlNUQlN0QlNUQ=&quot;&gt;getTargetNumber&lt;/span&gt;&lt;span style=&quot;background-color: initial;&quot;&gt;():&amp;nbsp;&lt;/span&gt;&lt;span style=&quot;background-color: initial;&quot;&gt;String&lt;/span&gt;&lt;br&gt;&lt;/font&gt;&lt;/p&gt;&lt;p style=&quot;margin: 0px 0px 0px 4px; line-height: 1.6;&quot;&gt;&lt;font style=&quot;font-size: 14px;&quot;&gt;+&amp;nbsp;&lt;span style=&quot;white-space: pre;&quot; data-slate-fragment=&quot;JTVCJTdCJTIydHlwZSUyMiUzQSUyMnBhcmFncmFwaCUyMiUyQyUyMmNoaWxkcmVuJTIyJTNBJTVCJTdCJTIyaWQlMjIlM0ElMjJiVlJETzVvbVFCJTIyJTJDJTIycGFyYUlkeCUyMiUzQTAlMkMlMjJzcmMlMjIlM0ElMjJwYWludENvbXBvbmVudCUyMiUyQyUyMmRzdCUyMiUzQSUyMnBhaW50Q29tcG9uZW50JTIyJTJDJTIybWV0YWRhdGElMjIlM0ElMjIlMjIlMkMlMjJtZXRhRGF0YSUyMiUzQSU1QiU1RCUyQyUyMnRleHQlMjIlM0ElMjJnZXRDdXJyZW50R3Vlc3MlMjIlN0QlNUQlN0QlNUQ=&quot;&gt;getCurrentGuess&lt;/span&gt;():&amp;nbsp;&lt;span style=&quot;white-space: pre; background-color: initial;&quot;&gt;StringBuilder&lt;/span&gt;&lt;br&gt;&lt;/font&gt;&lt;/p&gt;&lt;p style=&quot;margin: 0px 0px 0px 4px; line-height: 1.6;&quot;&gt;&lt;font style=&quot;font-size: 14px;&quot;&gt;+&amp;nbsp;&lt;span style=&quot;white-space: pre;&quot; data-slate-fragment=&quot;JTVCJTdCJTIydHlwZSUyMiUzQSUyMnBhcmFncmFwaCUyMiUyQyUyMmNoaWxkcmVuJTIyJTNBJTVCJTdCJTIyaWQlMjIlM0ElMjJvVmR5TDJkbGF6JTIyJTJDJTIycGFyYUlkeCUyMiUzQTAlMkMlMjJzcmMlMjIlM0ElMjJnZXRSZW1haW5pbmdBdHRlbXB0cyUyMiUyQyUyMmRzdCUyMiUzQSUyMiVFOCU4RSVCNyVFNSU4RiU5NiVFNSU4OSVBOSVFNCVCRCU5OSVFNSVCMCU5RCVFOCVBRiU5NSVFNiVBQyVBMSVFNiU5NSVCMCUyMiUyQyUyMm1ldGFkYXRhJTIyJTNBJTIyJTIyJTJDJTIybWV0YURhdGElMjIlM0ElNUIlNUQlMkMlMjJ0ZXh0JTIyJTNBJTIyZ2V0UmVtYWluaW5nQXR0ZW1wdHMlMjIlN0QlNUQlN0QlNUQ=&quot;&gt;getRemainingAttempts&lt;/span&gt;():&amp;nbsp;&lt;span style=&quot;background-color: initial; white-space: pre;&quot;&gt;int&lt;/span&gt;&lt;span style=&quot;white-space: pre; background-color: initial;&quot;&gt;&lt;br&gt;&lt;/span&gt;&lt;/font&gt;&lt;/p&gt;&lt;p style=&quot;margin: 0px 0px 0px 4px; line-height: 1.6;&quot;&gt;&lt;font style=&quot;font-size: 14px;&quot;&gt;+&amp;nbsp;&lt;span style=&quot;white-space: pre;&quot; data-slate-fragment=&quot;JTVCJTdCJTIydHlwZSUyMiUzQSUyMnBhcmFncmFwaCUyMiUyQyUyMmNoaWxkcmVuJTIyJTNBJTVCJTdCJTIyaWQlMjIlM0ElMjJtVlFsRFJneHBlJTIyJTJDJTIycGFyYUlkeCUyMiUzQTAlMkMlMjJzcmMlMjIlM0ElMjJzdGFydE5ld0dhbWUlMjIlMkMlMjJkc3QlMjIlM0ElMjIlRTUlQkMlODAlRTUlQTclOEIlRTYlOTYlQjAlRTYlQjglQjglRTYlODglOEYlMjIlMkMlMjJtZXRhZGF0YSUyMiUzQSUyMiUyMiUyQyUyMm1ldGFEYXRhJTIyJTNBJTVCJTVEJTJDJTIydGV4dCUyMiUzQSUyMmdldFNhbWVDaGFyc2MlMjIlN0QlNUQlN0QlNUQ=&quot;&gt;getSameCharsc&lt;/span&gt;():&amp;nbsp;&lt;span style=&quot;white-space: pre; background-color: initial;&quot;&gt;StringBuilder&lt;/span&gt;&lt;span style=&quot;background-color: initial; white-space: pre;&quot;&gt;&lt;br&gt;&lt;/span&gt;&lt;/font&gt;&lt;/p&gt;&lt;p style=&quot;margin: 0px 0px 0px 4px; line-height: 1.6;&quot;&gt;&lt;font style=&quot;font-size: 14px;&quot;&gt;+&amp;nbsp;&lt;span style=&quot;white-space: pre;&quot; data-slate-fragment=&quot;JTVCJTdCJTIydHlwZSUyMiUzQSUyMnBhcmFncmFwaCUyMiUyQyUyMmNoaWxkcmVuJTIyJTNBJTVCJTdCJTIyaWQlMjIlM0ElMjI3QlhwV09hcXBCJTIyJTJDJTIycGFyYUlkeCUyMiUzQTAlMkMlMjJzcmMlMjIlM0ElMjJnZXREaWZmQ2hhcnNjJTIyJTJDJTIyZHN0JTIyJTNBJTIyZ2V0RGlmZkNoYXJzYyUyMiUyQyUyMm1ldGFkYXRhJTIyJTNBJTIyJTIyJTJDJTIybWV0YURhdGElMjIlM0ElNUIlNUQlMkMlMjJ0ZXh0JTIyJTNBJTIyZ2V0RGlmZkNoYXJzYyUyMiU3RCU1RCU3RCU1RA==&quot;&gt;getDiffCharsc&lt;/span&gt;():&amp;nbsp;&lt;span style=&quot;white-space: pre; background-color: initial;&quot;&gt;StringBuilder&lt;/span&gt;&lt;span style=&quot;background-color: initial; white-space: pre;&quot;&gt;&lt;br&gt;&lt;/span&gt;&lt;/font&gt;&lt;/p&gt;&lt;p style=&quot;margin: 0px 0px 0px 4px; line-height: 1.6;&quot;&gt;&lt;font style=&quot;font-size: 14px;&quot;&gt;+&amp;nbsp;&lt;span style=&quot;white-space: pre;&quot; data-slate-fragment=&quot;JTVCJTdCJTIydHlwZSUyMiUzQSUyMnBhcmFncmFwaCUyMiUyQyUyMmNoaWxkcmVuJTIyJTNBJTVCJTdCJTIyaWQlMjIlM0ElMjJSZUc3MndsV3hlJTIyJTJDJTIycGFyYUlkeCUyMiUzQTAlMkMlMjJzcmMlMjIlM0ElMjJnZXRSZXNDaGFycyUyMiUyQyUyMmRzdCUyMiUzQSUyMmdldFJlc0NoYXJzJTIyJTJDJTIybWV0YWRhdGElMjIlM0ElMjIlMjIlMkMlMjJtZXRhRGF0YSUyMiUzQSU1QiU1RCUyQyUyMnRleHQlMjIlM0ElMjJnZXRSZXNDaGFycyUyMiU3RCU1RCU3RCU1RA==&quot;&gt;getResChars&lt;/span&gt;():&amp;nbsp;&lt;span style=&quot;background-color: initial; white-space: pre;&quot;&gt;StringBuilder&lt;/span&gt;&lt;span style=&quot;white-space: pre; background-color: initial;&quot;&gt;&lt;br&gt;&lt;/span&gt;&lt;/font&gt;&lt;/p&gt;&lt;p style=&quot;margin: 0px 0px 0px 4px; line-height: 1.6;&quot;&gt;&lt;font style=&quot;font-size: 14px;&quot;&gt;+&amp;nbsp;&lt;span style=&quot;white-space: pre;&quot; data-slate-fragment=&quot;JTVCJTdCJTIydHlwZSUyMiUzQSUyMnBhcmFncmFwaCUyMiUyQyUyMmNoaWxkcmVuJTIyJTNBJTVCJTdCJTIyaWQlMjIlM0ElMjJrVjFFMjRxMGdWJTIyJTJDJTIycGFyYUlkeCUyMiUzQTAlMkMlMjJzcmMlMjIlM0ElMjJzZXRSYW5kRmxhZygpJTIyJTJDJTIyZHN0JTIyJTNBJTIyc2V0UmFuZEZsYWclRUYlQkMlODglRUYlQkMlODklMjIlMkMlMjJtZXRhZGF0YSUyMiUzQSUyMiUyMiUyQyUyMm1ldGFEYXRhJTIyJTNBJTVCJTVEJTJDJTIydGV4dCUyMiUzQSUyMnNldFJhbmRGbGFnJTIyJTdEJTVEJTdEJTVE&quot;&gt;setValidFlag&lt;/span&gt;&lt;span style=&quot;background-color: initial;&quot;&gt;(validFlag:&amp;nbsp;&lt;/span&gt;boolean&lt;span style=&quot;background-color: initial;&quot;&gt;): void&lt;/span&gt;&lt;span style=&quot;background-color: initial; white-space: pre;&quot;&gt;&lt;br&gt;&lt;/span&gt;&lt;/font&gt;&lt;/p&gt;&lt;p style=&quot;margin: 0px 0px 0px 4px; line-height: 1.6;&quot;&gt;+&amp;nbsp;&lt;span style=&quot;white-space: pre;&quot; data-slate-fragment=&quot;JTVCJTdCJTIydHlwZSUyMiUzQSUyMnBhcmFncmFwaCUyMiUyQyUyMmNoaWxkcmVuJTIyJTNBJTVCJTdCJTIyaWQlMjIlM0ElMjJrVjFFMjRxMGdWJTIyJTJDJTIycGFyYUlkeCUyMiUzQTAlMkMlMjJzcmMlMjIlM0ElMjJzZXRSYW5kRmxhZygpJTIyJTJDJTIyZHN0JTIyJTNBJTIyc2V0UmFuZEZsYWclRUYlQkMlODglRUYlQkMlODklMjIlMkMlMjJtZXRhZGF0YSUyMiUzQSUyMiUyMiUyQyUyMm1ldGFEYXRhJTIyJTNBJTVCJTVEJTJDJTIydGV4dCUyMiUzQSUyMnNldFJhbmRGbGFnJTIyJTdEJTVEJTdEJTVE&quot;&gt;setTestFlag&lt;/span&gt;&lt;span style=&quot;background-color: initial;&quot;&gt;(t&lt;/span&gt;&lt;span style=&quot;white-space: pre;&quot;&gt;estFlag&lt;/span&gt;&lt;span style=&quot;background-color: initial;&quot;&gt;:&amp;nbsp;&lt;/span&gt;boolean&lt;span style=&quot;background-color: initial;&quot;&gt;): void&lt;/span&gt;&lt;br&gt;&lt;/p&gt;&lt;p style=&quot;margin: 0px 0px 0px 4px; line-height: 1.6;&quot;&gt;+&amp;nbsp;&lt;span style=&quot;white-space: pre;&quot; data-slate-fragment=&quot;JTVCJTdCJTIydHlwZSUyMiUzQSUyMnBhcmFncmFwaCUyMiUyQyUyMmNoaWxkcmVuJTIyJTNBJTVCJTdCJTIyaWQlMjIlM0ElMjJrVjFFMjRxMGdWJTIyJTJDJTIycGFyYUlkeCUyMiUzQTAlMkMlMjJzcmMlMjIlM0ElMjJzZXRSYW5kRmxhZygpJTIyJTJDJTIyZHN0JTIyJTNBJTIyc2V0UmFuZEZsYWclRUYlQkMlODglRUYlQkMlODklMjIlMkMlMjJtZXRhZGF0YSUyMiUzQSUyMiUyMiUyQyUyMm1ldGFEYXRhJTIyJTNBJTVCJTVEJTJDJTIydGV4dCUyMiUzQSUyMnNldFJhbmRGbGFnJTIyJTdEJTVEJTdEJTVE&quot;&gt;setRandFlag&lt;/span&gt;&lt;span style=&quot;background-color: initial;&quot;&gt;(r&lt;/span&gt;&lt;span style=&quot;white-space: pre;&quot;&gt;andFlag&lt;/span&gt;&lt;span style=&quot;background-color: initial;&quot;&gt;:&amp;nbsp;&lt;/span&gt;boolean&lt;span style=&quot;background-color: initial;&quot;&gt;): void&lt;/span&gt;&lt;span style=&quot;background-color: initial;&quot;&gt;&lt;br&gt;&lt;/span&gt;&lt;/p&gt;" style="verticalAlign=top;align=left;overflow=fill;fontSize=14;fontFamily=Helvetica;html=1;rounded=0;shadow=0;comic=0;labelBackgroundColor=none;strokeWidth=1;" parent="1" vertex="1">
          <mxGeometry x="525" y="760" width="436" height="803" as="geometry" />
        </mxCell>
        <mxCell id="peYF-icMhrGueYidbXqp-15" style="edgeStyle=orthogonalEdgeStyle;rounded=0;orthogonalLoop=1;jettySize=auto;html=1;exitX=1;exitY=0.5;exitDx=0;exitDy=0;entryX=0;entryY=0.5;entryDx=0;entryDy=0;startArrow=diamondThin;startFill=0;endArrow=none;endFill=0;dashed=1;dashPattern=8 8;endSize=12;startSize=12;" edge="1" parent="1" source="node2" target="peYF-icMhrGueYidbXqp-2">
          <mxGeometry relative="1" as="geometry" />
        </mxCell>
        <mxCell id="node2" value="&lt;p style=&quot;margin:0px;margin-top:4px;text-align:center;&quot;&gt;&lt;b&gt;Observable&lt;/b&gt;&lt;/p&gt;&lt;hr size=&quot;1&quot;&gt;&lt;p style=&quot;margin: 4px 0px 0px;&quot;&gt;&amp;nbsp;- obs: Vector&amp;lt;Observer&amp;gt;&lt;br&gt;&lt;/p&gt;&lt;hr size=&quot;1&quot;&gt;&lt;p style=&quot;margin: 0px 0px 0px 4px; line-height: 1.6;&quot;&gt;&lt;span style=&quot;background-color: initial;&quot;&gt;+ addObserver(Observer): void&lt;/span&gt;&lt;br&gt;&lt;/p&gt;&lt;p style=&quot;margin:0 0 0 4px;line-height:1.6;&quot;&gt;+ notifyObservers(): void&lt;br&gt;# setChanged(): void&lt;br&gt;+ notifyObservers(): void&lt;br&gt;&lt;/p&gt;" style="verticalAlign=top;align=left;overflow=fill;fontSize=14;fontFamily=Helvetica;html=1;rounded=0;shadow=0;comic=0;labelBackgroundColor=none;strokeWidth=1;" parent="1" vertex="1">
          <mxGeometry x="700" y="399" width="244" height="154" as="geometry" />
        </mxCell>
        <mxCell id="edge6" value="" style="html=1;rounded=1;edgeStyle=orthogonalEdgeStyle;dashed=1;startArrow=none;endArrow=openThin;endSize=12;strokeColor=#595959;exitX=0.500;exitY=0.000;exitDx=0;exitDy=0;entryX=0.25;entryY=1;entryDx=0;entryDy=0;dashPattern=8 8;" parent="1" source="node5" target="node3" edge="1">
          <mxGeometry width="50" height="50" relative="1" as="geometry" />
        </mxCell>
        <mxCell id="edge0" value="" style="html=1;rounded=0;edgeStyle=orthogonalEdgeStyle;dashed=0;startArrow=none;endArrow=block;endSize=12;strokeColor=#000000;exitX=0.5;exitY=0;exitDx=0;exitDy=0;entryX=0.500;entryY=1.000;entryDx=0;entryDy=0;endFill=0;" parent="1" source="node3" target="node2" edge="1">
          <mxGeometry width="50" height="50" relative="1" as="geometry" />
        </mxCell>
        <mxCell id="peYF-icMhrGueYidbXqp-24" style="edgeStyle=orthogonalEdgeStyle;rounded=0;orthogonalLoop=1;jettySize=auto;html=1;exitX=0.002;exitY=0.464;exitDx=0;exitDy=0;entryX=1;entryY=0.25;entryDx=0;entryDy=0;endArrow=none;endFill=0;exitPerimeter=0;" edge="1" parent="1" source="peYF-icMhrGueYidbXqp-1" target="peYF-icMhrGueYidbXqp-11">
          <mxGeometry relative="1" as="geometry">
            <Array as="points">
              <mxPoint x="1407" y="929" />
              <mxPoint x="1407" y="1328" />
            </Array>
          </mxGeometry>
        </mxCell>
        <mxCell id="peYF-icMhrGueYidbXqp-1" value="&lt;p style=&quot;margin:0px;margin-top:4px;text-align:center;&quot;&gt;&lt;b&gt;NumberleView&lt;/b&gt;&lt;/p&gt;&lt;hr size=&quot;1&quot;&gt;&lt;p style=&quot;margin:0 0 0 4px;line-height:1.6;&quot;&gt;&lt;span style=&quot;background-color: initial;&quot;&gt;-&amp;nbsp;model:&amp;nbsp;&lt;/span&gt;&lt;span style=&quot;background-color: initial; white-space: pre;&quot;&gt;INumberleModel &lt;/span&gt;&lt;span style=&quot;background-color: initial; white-space: pre;&quot;&gt;{readonly}&lt;/span&gt;&lt;br&gt;&lt;/p&gt;&lt;p style=&quot;margin:0 0 0 4px;line-height:1.6;&quot;&gt;-&amp;nbsp;&lt;span style=&quot;white-space: pre;&quot;&gt;controller&lt;/span&gt;:&amp;nbsp;&lt;span style=&quot;white-space: pre; background-color: initial;&quot;&gt;NumberleController &lt;/span&gt;&lt;span style=&quot;white-space: pre; background-color: initial;&quot;&gt;{readonly}&lt;/span&gt;&lt;span style=&quot;white-space: pre; background-color: initial;&quot;&gt;&lt;br&gt;&lt;/span&gt;&lt;/p&gt;&lt;p style=&quot;margin:0 0 0 4px;line-height:1.6;&quot;&gt;-&amp;nbsp;&lt;span style=&quot;white-space: pre;&quot;&gt;frame&lt;/span&gt;:&amp;nbsp;&lt;span style=&quot;white-space: pre; background-color: initial;&quot;&gt;JFrame &lt;/span&gt;&lt;span style=&quot;white-space: pre; background-color: initial;&quot;&gt;{readonly}&lt;/span&gt;&lt;span style=&quot;white-space: pre; background-color: initial;&quot;&gt;&lt;br&gt;&lt;/span&gt;&lt;/p&gt;&lt;p style=&quot;margin:0 0 0 4px;line-height:1.6;&quot;&gt;-&amp;nbsp;&lt;span style=&quot;white-space: pre;&quot; data-slate-fragment=&quot;JTVCJTdCJTIydHlwZSUyMiUzQSUyMnBhcmFncmFwaCUyMiUyQyUyMmNoaWxkcmVuJTIyJTNBJTVCJTdCJTIyaWQlMjIlM0ElMjJ2ZWJ5M0dKcXJCJTIyJTJDJTIycGFyYUlkeCUyMiUzQTIlMkMlMjJzcmMlMjIlM0ElMjJpbnB1dFRleHRGaWVsZCUyMiUyQyUyMmRzdCUyMiUzQSUyMmlucHV0VGV4dEZpZWxkJTIyJTJDJTIybWV0YWRhdGElMjIlM0ElMjIlMjIlMkMlMjJtZXRhRGF0YSUyMiUzQSU1QiU1RCUyQyUyMnRleHQlMjIlM0ElMjJpbnB1dFRleHRGaWVsZCUyMiU3RCU1RCU3RCU1RA==&quot;&gt;inputTextField&lt;/span&gt;:&amp;nbsp;&lt;span style=&quot;white-space: pre; background-color: initial;&quot;&gt;String &lt;/span&gt;&lt;span style=&quot;white-space: pre; background-color: initial;&quot;&gt;{readonly}&lt;/span&gt;&lt;span style=&quot;white-space: pre; background-color: initial;&quot;&gt;&lt;br&gt;&lt;/span&gt;&lt;/p&gt;&lt;p style=&quot;margin:0 0 0 4px;line-height:1.6;&quot;&gt;-&amp;nbsp;&lt;span style=&quot;white-space: pre; background-color: initial;&quot;&gt;attemptsLabel&lt;/span&gt;&lt;span style=&quot;background-color: initial;&quot;&gt;:&amp;nbsp;&lt;/span&gt;&lt;span style=&quot;white-space: pre; background-color: initial;&quot;&gt;JLabel &lt;/span&gt;&lt;span style=&quot;white-space: pre; background-color: initial;&quot;&gt;{readonly}&lt;/span&gt;&lt;/p&gt;&lt;p style=&quot;margin:0 0 0 4px;line-height:1.6;&quot;&gt;-&amp;nbsp;&lt;span style=&quot;white-space: pre;&quot; data-slate-fragment=&quot;JTVCJTdCJTIydHlwZSUyMiUzQSUyMnBhcmFncmFwaCUyMiUyQyUyMmNoaWxkcmVuJTIyJTNBJTVCJTdCJTIyaWQlMjIlM0ElMjJLZXF5MDZsT0tlJTIyJTJDJTIycGFyYUlkeCUyMiUzQTAlMkMlMjJzcmMlMjIlM0ElMjJ0YXJnZXRMYWJlbCUyMiUyQyUyMmRzdCUyMiUzQSUyMnRhcmdldExhYmVsJTIyJTJDJTIybWV0YWRhdGElMjIlM0ElMjIlMjIlMkMlMjJtZXRhRGF0YSUyMiUzQSU1QiU1RCUyQyUyMnRleHQlMjIlM0ElMjJ0YXJnZXRMYWJlbCUyMiU3RCU1RCU3RCU1RA==&quot;&gt;targetLabel&lt;/span&gt;:&amp;nbsp;&lt;span style=&quot;white-space: pre; background-color: initial;&quot;&gt;JLabel &lt;/span&gt;&lt;span style=&quot;white-space: pre; background-color: initial;&quot;&gt;{readonly}&lt;/span&gt;&lt;span style=&quot;background-color: initial; white-space: pre;&quot;&gt;&lt;br&gt;&lt;/span&gt;&lt;/p&gt;&lt;p style=&quot;margin:0 0 0 4px;line-height:1.6;&quot;&gt;-&amp;nbsp;&lt;span style=&quot;white-space: pre;&quot; data-slate-fragment=&quot;JTVCJTdCJTIydHlwZSUyMiUzQSUyMnBhcmFncmFwaCUyMiUyQyUyMmNoaWxkcmVuJTIyJTNBJTVCJTdCJTIyaWQlMjIlM0ElMjJLZXF5MDZsT0tlJTIyJTJDJTIycGFyYUlkeCUyMiUzQTAlMkMlMjJzcmMlMjIlM0ElMjJ0YXJnZXRMYWJlbCUyMiUyQyUyMmRzdCUyMiUzQSUyMnRhcmdldExhYmVsJTIyJTJDJTIybWV0YWRhdGElMjIlM0ElMjIlMjIlMkMlMjJtZXRhRGF0YSUyMiUzQSU1QiU1RCUyQyUyMnRleHQlMjIlM0ElMjJudW1iZXJQYW5lbCUyMiU3RCU1RCU3RCU1RA==&quot;&gt;numberPanel&lt;/span&gt;:&amp;nbsp;&lt;span style=&quot;white-space: pre; background-color: initial;&quot;&gt;JPanel &lt;/span&gt;&lt;span style=&quot;white-space: pre; background-color: initial;&quot;&gt;{readonly}&lt;/span&gt;&lt;span style=&quot;background-color: initial; white-space: pre;&quot;&gt;&lt;br&gt;&lt;/span&gt;&lt;/p&gt;&lt;p style=&quot;margin:0 0 0 4px;line-height:1.6;&quot;&gt;- input&lt;span style=&quot;white-space: pre;&quot;&gt;Panel&lt;/span&gt;:&amp;nbsp;&lt;span style=&quot;white-space: pre; background-color: initial;&quot;&gt;JPanel &lt;/span&gt;&lt;span style=&quot;white-space: pre; background-color: initial;&quot;&gt;{readonly}&lt;/span&gt;&lt;span style=&quot;background-color: initial; white-space: pre;&quot;&gt;&lt;br&gt;&lt;/span&gt;&lt;/p&gt;&lt;p style=&quot;margin:0 0 0 4px;line-height:1.6;&quot;&gt;- exp&lt;span style=&quot;white-space: pre;&quot;&gt;Panel&lt;/span&gt;:&amp;nbsp;&lt;span style=&quot;white-space: pre; background-color: initial;&quot;&gt;JPanel &lt;/span&gt;&lt;span style=&quot;white-space: pre; background-color: initial;&quot;&gt;{readonly}&lt;/span&gt;&lt;span style=&quot;background-color: initial; white-space: pre;&quot;&gt;&lt;br&gt;&lt;/span&gt;&lt;/p&gt;&lt;p style=&quot;margin:0 0 0 4px;line-height:1.6;&quot;&gt;-&amp;nbsp;&lt;span style=&quot;white-space: pre;&quot;&gt;startB&lt;/span&gt;:&amp;nbsp;&lt;span style=&quot;background-color: initial; white-space: pre;&quot;&gt;JButton &lt;/span&gt;&lt;span style=&quot;white-space: pre; background-color: initial;&quot;&gt;{readonly}&lt;/span&gt;&lt;span style=&quot;background-color: initial; white-space: pre;&quot;&gt;&lt;br&gt;&lt;/span&gt;&lt;/p&gt;&lt;p style=&quot;margin:0 0 0 4px;line-height:1.6;&quot;&gt;-&amp;nbsp;&lt;span style=&quot;white-space: pre;&quot; data-slate-fragment=&quot;JTVCJTdCJTIydHlwZSUyMiUzQSUyMnBhcmFncmFwaCUyMiUyQyUyMmNoaWxkcmVuJTIyJTNBJTVCJTdCJTIyaWQlMjIlM0ElMjIxQmFxTWxvdkpCJTIyJTJDJTIycGFyYUlkeCUyMiUzQTAlMkMlMjJzcmMlMjIlM0ElMjJNQVhhdHRlbXB0cyUyMiUyQyUyMmRzdCUyMiUzQSUyMiVFNiU5QyU4MCVFNSVBNCVBNyVFNSVCMCU5RCVFOCVBRiU5NSVFNiVBQyVBMSVFNiU5NSVCMCUyMiUyQyUyMm1ldGFkYXRhJTIyJTNBJTIyJTIyJTJDJTIybWV0YURhdGElMjIlM0ElNUIlNUQlMkMlMjJ0ZXh0JTIyJTNBJTIyTUFYYXR0ZW1wdHMlMjIlN0QlNUQlN0QlNUQ=&quot;&gt;MAXattempts&lt;/span&gt;:&amp;nbsp;&lt;span style=&quot;background-color: initial; white-space: pre;&quot;&gt;int&lt;/span&gt;&lt;span style=&quot;background-color: initial; white-space: pre;&quot;&gt;&lt;br&gt;&lt;/span&gt;&lt;/p&gt;&lt;p style=&quot;margin:0 0 0 4px;line-height:1.6;&quot;&gt;-&amp;nbsp;&lt;span style=&quot;white-space: pre;&quot; data-slate-fragment=&quot;JTVCJTdCJTIydHlwZSUyMiUzQSUyMnBhcmFncmFwaCUyMiUyQyUyMmNoaWxkcmVuJTIyJTNBJTVCJTdCJTIyaWQlMjIlM0ElMjJsQkQ3WHhveER6JTIyJTJDJTIycGFyYUlkeCUyMiUzQTAlMkMlMjJzcmMlMjIlM0ElMjJjdXJpbmRleCUyMiUyQyUyMmRzdCUyMiUzQSUyMmN1cmluZGV4JTIyJTJDJTIybWV0YWRhdGElMjIlM0ElMjIlMjIlMkMlMjJtZXRhRGF0YSUyMiUzQSU1QiU1RCUyQyUyMnRleHQlMjIlM0ElMjJjdXJpbmRleCUyMiU3RCU1RCU3RCU1RA==&quot;&gt;curindex&lt;/span&gt;:&amp;nbsp;&lt;span style=&quot;background-color: initial; white-space: pre;&quot;&gt;int&lt;/span&gt;&lt;span style=&quot;background-color: initial; white-space: pre;&quot;&gt;&lt;br&gt;&lt;/span&gt;&lt;/p&gt;&lt;p style=&quot;margin:0 0 0 4px;line-height:1.6;&quot;&gt;-&amp;nbsp;&lt;span style=&quot;white-space: pre;&quot; data-slate-fragment=&quot;JTVCJTdCJTIydHlwZSUyMiUzQSUyMnBhcmFncmFwaCUyMiUyQyUyMmNoaWxkcmVuJTIyJTNBJTVCJTdCJTIyaWQlMjIlM0ElMjJ4QnZ5TVAwYld6JTIyJTJDJTIycGFyYUlkeCUyMiUzQTAlMkMlMjJzcmMlMjIlM0ElMjJjdXJBdHRlbXB0cyUyMiUyQyUyMmRzdCUyMiUzQSUyMmN1ckF0dGVtcHRzJTIyJTJDJTIybWV0YWRhdGElMjIlM0ElMjIlMjIlMkMlMjJtZXRhRGF0YSUyMiUzQSU1QiU1RCUyQyUyMnRleHQlMjIlM0ElMjJjdXJBdHRlbXB0cyUyMiU3RCU1RCU3RCU1RA==&quot;&gt;curAttempts&lt;/span&gt;:&amp;nbsp;&lt;span style=&quot;background-color: initial; white-space: pre;&quot;&gt;int&lt;/span&gt;&lt;span style=&quot;background-color: initial; white-space: pre;&quot;&gt;&lt;br&gt;&lt;/span&gt;&lt;/p&gt;&lt;p style=&quot;margin:0 0 0 4px;line-height:1.6;&quot;&gt;&lt;span style=&quot;white-space: pre;&quot; data-slate-fragment=&quot;JTVCJTdCJTIydHlwZSUyMiUzQSUyMnBhcmFncmFwaCUyMiUyQyUyMmNoaWxkcmVuJTIyJTNBJTVCJTdCJTIyaWQlMjIlM0ElMjJ4QnZ5TVAwYld6JTIyJTJDJTIycGFyYUlkeCUyMiUzQTAlMkMlMjJzcmMlMjIlM0ElMjJjdXJBdHRlbXB0cyUyMiUyQyUyMmRzdCUyMiUzQSUyMmN1ckF0dGVtcHRzJTIyJTJDJTIybWV0YWRhdGElMjIlM0ElMjIlMjIlMkMlMjJtZXRhRGF0YSUyMiUzQSU1QiU1RCUyQyUyMnRleHQlMjIlM0ElMjJvcGVyYXRvcnMlMjIlN0QlNUQlN0QlNUQ=&quot;&gt;- operators: &lt;/span&gt;&lt;span style=&quot;white-space: pre; background-color: initial;&quot;&gt;String[]&lt;/span&gt;&lt;span style=&quot;background-color: initial; white-space: pre;&quot;&gt;&lt;br&gt;&lt;/span&gt;&lt;/p&gt;&lt;hr size=&quot;1&quot;&gt;&lt;p style=&quot;margin:0 0 0 4px;line-height:1.6;&quot;&gt;+&amp;nbsp;&lt;span style=&quot;white-space: pre;&quot; data-slate-fragment=&quot;JTVCJTdCJTIydHlwZSUyMiUzQSUyMnBhcmFncmFwaCUyMiUyQyUyMmNoaWxkcmVuJTIyJTNBJTVCJTdCJTIyaWQlMjIlM0ElMjJ3ZW15OFFLbG9lJTIyJTJDJTIycGFyYUlkeCUyMiUzQTAlMkMlMjJzcmMlMjIlM0ElMjJOdW1iZXJsZVZpZXclMjIlMkMlMjJkc3QlMjIlM0ElMjIlRTYlOTUlQjAlRTUlQUQlOTclRTglQTclODYlRTUlOUIlQkUlMjIlMkMlMjJtZXRhZGF0YSUyMiUzQSUyMiUyMiUyQyUyMm1ldGFEYXRhJTIyJTNBJTVCJTVEJTJDJTIydGV4dCUyMiUzQSUyMk51bWJlcmxlVmlldyUyMiU3RCU1RCU3RCU1RA==&quot;&gt;NumberleView&lt;/span&gt;(model:&amp;nbsp;&lt;span style=&quot;white-space: pre; background-color: initial;&quot;&gt;INumberleModel, &lt;/span&gt;&lt;span style=&quot;white-space: pre; background-color: initial;&quot;&gt;controller: &lt;/span&gt;&lt;span style=&quot;white-space: pre; background-color: initial;&quot;&gt;NumberleController&lt;/span&gt;&lt;span style=&quot;background-color: initial;&quot;&gt;)&lt;/span&gt;&lt;/p&gt;&lt;p style=&quot;margin:0 0 0 4px;line-height:1.6;&quot;&gt;+ initializeFrame(): void&lt;/p&gt;&lt;p style=&quot;margin:0 0 0 4px;line-height:1.6;&quot;&gt;+ clearFrame(): void&lt;/p&gt;&lt;p style=&quot;margin:0 0 0 4px;line-height:1.6;&quot;&gt;+ changeButtonColor(curguess: StringBuilder): void&lt;br&gt;+ addNewEq(&lt;span style=&quot;background-color: initial;&quot;&gt;curguess:&amp;nbsp;&lt;/span&gt;&lt;span style=&quot;background-color: initial;&quot;&gt;StringBuilder, curAttempt: int): void&lt;/span&gt;&lt;/p&gt;&lt;p style=&quot;margin:0 0 0 4px;line-height:1.6;&quot;&gt;+ update(o: Observable, arg: Object): void&lt;br&gt;&lt;/p&gt;" style="verticalAlign=top;align=left;overflow=fill;fontSize=14;fontFamily=Helvetica;html=1;rounded=0;shadow=0;comic=0;labelBackgroundColor=none;strokeWidth=1;" vertex="1" parent="1">
          <mxGeometry x="1510" y="692" width="480" height="510" as="geometry" />
        </mxCell>
        <mxCell id="peYF-icMhrGueYidbXqp-2" value="&lt;p style=&quot;margin:0px;margin-top:4px;text-align:center;&quot;&gt;&lt;i&gt;&amp;lt;&amp;lt;interface&amp;gt;&amp;gt;&lt;/i&gt;&lt;b&gt;&lt;br&gt;&lt;/b&gt;&lt;/p&gt;&lt;p style=&quot;margin:0px;margin-top:4px;text-align:center;&quot;&gt;&lt;b&gt;Observer&lt;/b&gt;&lt;/p&gt;&lt;hr size=&quot;1&quot;&gt;&lt;p style=&quot;margin:0 0 0 4px;line-height:1.6;&quot;&gt;&lt;span style=&quot;background-color: initial;&quot;&gt;+ update(o: Observable, arg: Object): void&lt;/span&gt;&lt;/p&gt;" style="verticalAlign=top;align=left;overflow=fill;fontSize=14;fontFamily=Helvetica;html=1;rounded=0;shadow=0;comic=0;labelBackgroundColor=none;strokeWidth=1;" vertex="1" parent="1">
          <mxGeometry x="1395" y="431" width="280" height="90" as="geometry" />
        </mxCell>
        <mxCell id="peYF-icMhrGueYidbXqp-3" value="&lt;p style=&quot;margin:0px;margin-top:4px;text-align:center;&quot;&gt;&lt;span style=&quot;white-space: pre;&quot; data-slate-fragment=&quot;JTVCJTdCJTIydHlwZSUyMiUzQSUyMnBhcmFncmFwaCUyMiUyQyUyMmNoaWxkcmVuJTIyJTNBJTVCJTdCJTIyaWQlMjIlM0ElMjIxQmFxSjdRUFpCJTIyJTJDJTIycGFyYUlkeCUyMiUzQTQlMkMlMjJzcmMlMjIlM0ElMjIlMkIlMjBzaW5jZSgpJTNBJTIwU3RyaW5nJTIyJTJDJTIyZHN0JTIyJTNBJTIyJTJCc2luY2UlRUYlQkMlODglRUYlQkMlODklRUYlQkMlOUElRTUlQUQlOTclRTclQUMlQTYlRTQlQjglQjIlMjIlMkMlMjJtZXRhZGF0YSUyMiUzQSUyMiUyMiUyQyUyMm1ldGFEYXRhJTIyJTNBJTVCJTVEJTJDJTIydGV4dCUyMiUzQSUyMlJvdW5kQnV0dG9uJTIyJTdEJTVEJTdEJTVE&quot;&gt;&lt;b&gt;RoundButton&lt;/b&gt;&lt;/span&gt;&lt;br&gt;&lt;/p&gt;&lt;hr size=&quot;1&quot;&gt;&lt;p style=&quot;margin:0 0 0 4px;line-height:1.6;&quot;&gt;&lt;span style=&quot;background-color: initial;&quot;&gt;- s: String&lt;/span&gt;&lt;br&gt;&lt;/p&gt;&lt;p style=&quot;margin:0 0 0 4px;line-height:1.6;&quot;&gt;- sizeX: int&lt;br&gt;&lt;/p&gt;&lt;p style=&quot;margin:0 0 0 4px;line-height:1.6;&quot;&gt;- sizeY: int&lt;br&gt;&lt;/p&gt;&lt;p style=&quot;margin:0 0 0 4px;line-height:1.6;&quot;&gt;- c&lt;span style=&quot;white-space: pre;&quot;&gt;olorB&lt;/span&gt;: Color&lt;br&gt;&lt;/p&gt;&lt;hr size=&quot;1&quot;&gt;&lt;p style=&quot;margin:0 0 0 4px;line-height:1.6;&quot;&gt;+&amp;nbsp;&lt;span style=&quot;background-color: initial; white-space: pre;&quot;&gt;RoundButton&lt;/span&gt;&lt;span style=&quot;background-color: initial;&quot;&gt;(s: String,&amp;nbsp;&lt;/span&gt;&lt;span style=&quot;background-color: initial;&quot;&gt;sizeX: int,&amp;nbsp;&lt;/span&gt;&lt;span style=&quot;background-color: initial;&quot;&gt;sizeY: int, bg: Color&lt;/span&gt;&lt;span style=&quot;background-color: initial;&quot;&gt;)&lt;/span&gt;&lt;br&gt;&lt;/p&gt;&lt;p style=&quot;margin:0 0 0 4px;line-height:1.6;&quot;&gt;+&amp;nbsp;&lt;span style=&quot;white-space: pre;&quot; data-slate-fragment=&quot;JTVCJTdCJTIydHlwZSUyMiUzQSUyMnBhcmFncmFwaCUyMiUyQyUyMmNoaWxkcmVuJTIyJTNBJTVCJTdCJTIyaWQlMjIlM0ElMjJuZTY3alh5UGFWJTIyJTJDJTIycGFyYUlkeCUyMiUzQTAlMkMlMjJzcmMlMjIlM0ElMjJSb3VuZEJ1dHRvbiUyMiUyQyUyMmRzdCUyMiUzQSUyMiVFNSU5QyU4NiVFNSVCRCVBMiVFNiU4QyU4OSVFOSU5MiVBRSUyMiUyQyUyMm1ldGFkYXRhJTIyJTNBJTIyJTIyJTJDJTIybWV0YURhdGElMjIlM0ElNUIlNUQlMkMlMjJ0ZXh0JTIyJTNBJTIyc2V0Q29sb3JCJTIyJTdEJTVEJTdEJTVE&quot;&gt;setColorB&lt;/span&gt;(c&lt;span style=&quot;white-space: pre;&quot;&gt;olorB:&lt;/span&gt;&amp;nbsp;Color): void&lt;/p&gt;&lt;p style=&quot;margin:0 0 0 4px;line-height:1.6;&quot;&gt;+&amp;nbsp;&lt;span style=&quot;white-space: pre;&quot; data-slate-fragment=&quot;JTVCJTdCJTIydHlwZSUyMiUzQSUyMnBhcmFncmFwaCUyMiUyQyUyMmNoaWxkcmVuJTIyJTNBJTVCJTdCJTIyaWQlMjIlM0ElMjJwenl3ZHZEZERlJTIyJTJDJTIycGFyYUlkeCUyMiUzQTAlMkMlMjJzcmMlMjIlM0ElMjJwYWludENvbXBvbmVudCUyMiUyQyUyMmRzdCUyMiUzQSUyMnBhaW50Q29tcG9uZW50JTIyJTJDJTIybWV0YWRhdGElMjIlM0ElMjIlMjIlMkMlMjJtZXRhRGF0YSUyMiUzQSU1QiU1RCUyQyUyMnRleHQlMjIlM0ElMjJwYWludENvbXBvbmVudCUyMiU3RCU1RCU3RCU1RA==&quot;&gt;paintComponent&lt;/span&gt;&lt;span style=&quot;background-color: initial;&quot;&gt;(g:&amp;nbsp;&lt;/span&gt;&lt;span style=&quot;white-space: pre; background-color: initial;&quot;&gt;Graphics&lt;/span&gt;&lt;span style=&quot;background-color: initial;&quot;&gt;):&amp;nbsp;&lt;/span&gt;&lt;span style=&quot;background-color: initial;&quot;&gt;void&lt;/span&gt;&lt;/p&gt;&lt;p style=&quot;margin:0 0 0 4px;line-height:1.6;&quot;&gt;+&amp;nbsp;&lt;span style=&quot;white-space: pre;&quot; data-slate-fragment=&quot;JTVCJTdCJTIydHlwZSUyMiUzQSUyMnBhcmFncmFwaCUyMiUyQyUyMmNoaWxkcmVuJTIyJTNBJTVCJTdCJTIyaWQlMjIlM0ElMjJwenl3ZHZEZERlJTIyJTJDJTIycGFyYUlkeCUyMiUzQTAlMkMlMjJzcmMlMjIlM0ElMjJwYWludENvbXBvbmVudCUyMiUyQyUyMmRzdCUyMiUzQSUyMnBhaW50Q29tcG9uZW50JTIyJTJDJTIybWV0YWRhdGElMjIlM0ElMjIlMjIlMkMlMjJtZXRhRGF0YSUyMiUzQSU1QiU1RCUyQyUyMnRleHQlMjIlM0ElMjJwYWludEJvcmRlciUyMiU3RCU1RCU3RCU1RA==&quot;&gt;paintBorder&lt;/span&gt;(&lt;span style=&quot;background-color: initial;&quot;&gt;g:&amp;nbsp;&lt;/span&gt;&lt;span style=&quot;background-color: initial; white-space: pre;&quot;&gt;Graphics&lt;/span&gt;&lt;span style=&quot;background-color: initial;&quot;&gt;): void&lt;/span&gt;&lt;/p&gt;" style="verticalAlign=top;align=left;overflow=fill;fontSize=14;fontFamily=Helvetica;html=1;rounded=0;shadow=0;comic=0;labelBackgroundColor=none;strokeWidth=1;" vertex="1" parent="1">
          <mxGeometry x="1536" y="1274" width="414" height="230" as="geometry" />
        </mxCell>
        <mxCell id="peYF-icMhrGueYidbXqp-4" value="&lt;p style=&quot;margin:0px;margin-top:4px;text-align:center;&quot;&gt;&lt;span style=&quot;white-space: pre;&quot; data-slate-fragment=&quot;JTVCJTdCJTIydHlwZSUyMiUzQSUyMnBhcmFncmFwaCUyMiUyQyUyMmNoaWxkcmVuJTIyJTNBJTVCJTdCJTIyaWQlMjIlM0ElMjIxQmFxSjdRUFpCJTIyJTJDJTIycGFyYUlkeCUyMiUzQTQlMkMlMjJzcmMlMjIlM0ElMjIlMkIlMjBzaW5jZSgpJTNBJTIwU3RyaW5nJTIyJTJDJTIyZHN0JTIyJTNBJTIyJTJCc2luY2UlRUYlQkMlODglRUYlQkMlODklRUYlQkMlOUElRTUlQUQlOTclRTclQUMlQTYlRTQlQjglQjIlMjIlMkMlMjJtZXRhZGF0YSUyMiUzQSUyMiUyMiUyQyUyMm1ldGFEYXRhJTIyJTNBJTVCJTVEJTJDJTIydGV4dCUyMiUzQSUyMlJvdW5kQnV0dG9uJTIyJTdEJTVEJTdEJTVE&quot;&gt;&lt;b&gt;JButton&lt;/b&gt;&lt;/span&gt;&lt;br&gt;&lt;/p&gt;&lt;hr size=&quot;1&quot;&gt;&lt;p style=&quot;margin:0 0 0 4px;line-height:1.6;&quot;&gt;&lt;span style=&quot;background-color: initial;&quot;&gt;- s: String&lt;/span&gt;&lt;br&gt;&lt;/p&gt;&lt;p style=&quot;margin:0 0 0 4px;line-height:1.6;&quot;&gt;- sizeX: int&lt;br&gt;&lt;/p&gt;&lt;p style=&quot;margin:0 0 0 4px;line-height:1.6;&quot;&gt;- sizeY: int&lt;br&gt;&lt;/p&gt;&lt;p style=&quot;margin:0 0 0 4px;line-height:1.6;&quot;&gt;- c&lt;span style=&quot;white-space: pre;&quot;&gt;olorB&lt;/span&gt;: Color&lt;br&gt;&lt;/p&gt;&lt;hr size=&quot;1&quot;&gt;&lt;p style=&quot;margin:0 0 0 4px;line-height:1.6;&quot;&gt;+&amp;nbsp;&lt;span style=&quot;white-space: pre;&quot; data-slate-fragment=&quot;JTVCJTdCJTIydHlwZSUyMiUzQSUyMnBhcmFncmFwaCUyMiUyQyUyMmNoaWxkcmVuJTIyJTNBJTVCJTdCJTIyaWQlMjIlM0ElMjI1Vk9yUlBFOWplJTIyJTJDJTIycGFyYUlkeCUyMiUzQTAlMkMlMjJzcmMlMjIlM0ElMjJzZXRCYWNrZ3JvdW5kJTIyJTJDJTIyZHN0JTIyJTNBJTIyJUU4JUFFJUJFJUU3JUJEJUFFJUU4JTgzJThDJUU2JTk5JUFGJTIyJTJDJTIybWV0YWRhdGElMjIlM0ElMjIlMjIlMkMlMjJtZXRhRGF0YSUyMiUzQSU1QiU1RCUyQyUyMnRleHQlMjIlM0ElMjJzZXRCYWNrZ3JvdW5kJTIyJTdEJTVEJTdEJTVE&quot;&gt;setBackground&lt;/span&gt;&lt;span style=&quot;background-color: initial;&quot;&gt;(c:&amp;nbsp;&lt;/span&gt;&lt;span style=&quot;background-color: initial;&quot;&gt;Color&lt;/span&gt;&lt;span style=&quot;background-color: initial;&quot;&gt;)&lt;/span&gt;&lt;span style=&quot;background-color: initial;&quot;&gt;: void&lt;/span&gt;&lt;br&gt;&lt;/p&gt;&lt;p style=&quot;margin:0 0 0 4px;line-height:1.6;&quot;&gt;+&amp;nbsp;&lt;span style=&quot;white-space: pre;&quot; data-slate-fragment=&quot;JTVCJTdCJTIydHlwZSUyMiUzQSUyMnBhcmFncmFwaCUyMiUyQyUyMmNoaWxkcmVuJTIyJTNBJTVCJTdCJTIyaWQlMjIlM0ElMjJuZTY3alh5UGFWJTIyJTJDJTIycGFyYUlkeCUyMiUzQTAlMkMlMjJzcmMlMjIlM0ElMjJSb3VuZEJ1dHRvbiUyMiUyQyUyMmRzdCUyMiUzQSUyMiVFNSU5QyU4NiVFNSVCRCVBMiVFNiU4QyU4OSVFOSU5MiVBRSUyMiUyQyUyMm1ldGFkYXRhJTIyJTNBJTIyJTIyJTJDJTIybWV0YURhdGElMjIlM0ElNUIlNUQlMkMlMjJ0ZXh0JTIyJTNBJTIyc2V0Q29sb3JCJTIyJTdEJTVEJTdEJTVE&quot;&gt;setContentAreaFilled&lt;/span&gt;(b: boolean): void&lt;/p&gt;&lt;p style=&quot;margin:0 0 0 4px;line-height:1.6;&quot;&gt;+&amp;nbsp;&lt;span style=&quot;white-space: pre;&quot; data-slate-fragment=&quot;JTVCJTdCJTIydHlwZSUyMiUzQSUyMnBhcmFncmFwaCUyMiUyQyUyMmNoaWxkcmVuJTIyJTNBJTVCJTdCJTIyaWQlMjIlM0ElMjJEQlBaS0RMV1dWJTIyJTJDJTIycGFyYUlkeCUyMiUzQTAlMkMlMjJzcmMlMjIlM0ElMjJnZXRTaXplJTIyJTJDJTIyZHN0JTIyJTNBJTIyZ2V0U2l6ZSUyMiUyQyUyMm1ldGFkYXRhJTIyJTNBJTIyJTIyJTJDJTIybWV0YURhdGElMjIlM0ElNUIlNUQlMkMlMjJ0ZXh0JTIyJTNBJTIyZ2V0U2l6ZSUyMiU3RCU1RCU3RCU1RA==&quot;&gt;getSize&lt;/span&gt;&lt;span style=&quot;background-color: initial;&quot;&gt;(&lt;/span&gt;&lt;span style=&quot;background-color: initial;&quot;&gt;):&amp;nbsp;&lt;/span&gt;&lt;span style=&quot;background-color: initial;&quot;&gt;int&lt;/span&gt;&lt;/p&gt;&lt;p style=&quot;margin:0 0 0 4px;line-height:1.6;&quot;&gt;+&amp;nbsp;&lt;span style=&quot;white-space: pre;&quot; data-slate-fragment=&quot;JTVCJTdCJTIydHlwZSUyMiUzQSUyMnBhcmFncmFwaCUyMiUyQyUyMmNoaWxkcmVuJTIyJTNBJTVCJTdCJTIyaWQlMjIlM0ElMjJEQlBaS0RMV1dWJTIyJTJDJTIycGFyYUlkeCUyMiUzQTAlMkMlMjJzcmMlMjIlM0ElMjJnZXRTaXplJTIyJTJDJTIyZHN0JTIyJTNBJTIyZ2V0U2l6ZSUyMiUyQyUyMm1ldGFkYXRhJTIyJTNBJTIyJTIyJTJDJTIybWV0YURhdGElMjIlM0ElNUIlNUQlMkMlMjJ0ZXh0JTIyJTNBJTIycGFpbnRDb21wb25lbnQlMjIlN0QlNUQlN0QlNUQ=&quot;&gt;paintComponent&lt;/span&gt;(&lt;span style=&quot;background-color: initial;&quot;&gt;g:&amp;nbsp;&lt;/span&gt;&lt;span style=&quot;background-color: initial; white-space: pre;&quot;&gt;Graphics&lt;/span&gt;&lt;span style=&quot;background-color: initial;&quot;&gt;): void&lt;/span&gt;&lt;/p&gt;" style="verticalAlign=top;align=left;overflow=fill;fontSize=14;fontFamily=Helvetica;html=1;rounded=0;shadow=0;comic=0;labelBackgroundColor=none;strokeWidth=1;" vertex="1" parent="1">
          <mxGeometry x="1536" y="1576" width="414" height="230" as="geometry" />
        </mxCell>
        <mxCell id="peYF-icMhrGueYidbXqp-6" value="" style="html=1;rounded=0;edgeStyle=orthogonalEdgeStyle;dashed=1;startArrow=none;endArrow=block;endSize=12;strokeColor=#000000;exitX=0.5;exitY=0;exitDx=0;exitDy=0;endFill=0;entryX=1;entryY=0.5;entryDx=0;entryDy=0;dashPattern=8 8;" edge="1" parent="1" source="peYF-icMhrGueYidbXqp-1" target="peYF-icMhrGueYidbXqp-2">
          <mxGeometry width="50" height="50" relative="1" as="geometry">
            <mxPoint x="1050" y="690" as="sourcePoint" />
            <mxPoint x="1050" y="590" as="targetPoint" />
          </mxGeometry>
        </mxCell>
        <mxCell id="peYF-icMhrGueYidbXqp-7" value="&lt;p style=&quot;margin:0px;margin-top:4px;text-align:center;&quot;&gt;&lt;i&gt;&amp;lt;&amp;lt;interface&amp;gt;&amp;gt;&lt;/i&gt;&lt;br&gt;&lt;b&gt;INumberleModel&lt;/b&gt;&lt;/p&gt;&lt;hr size=&quot;1&quot;&gt;&lt;p style=&quot;margin:0 0 0 4px;line-height:1.6;&quot;&gt;&lt;span style=&quot;white-space: pre;&quot; data-slate-fragment=&quot;JTVCJTdCJTIydHlwZSUyMiUzQSUyMnBhcmFncmFwaCUyMiUyQyUyMmNoaWxkcmVuJTIyJTNBJTVCJTdCJTIyaWQlMjIlM0ElMjJKVjBFTW9PMzV6JTIyJTJDJTIycGFyYUlkeCUyMiUzQTAlMkMlMjJzcmMlMjIlM0ElMjJNQVhfQVRURU1QVFMlMjIlMkMlMjJkc3QlMjIlM0ElMjIlRTYlOUMlODAlRTUlQTQlQTclRTUlQjAlOUQlRTglQUYlOTUlRTYlQUMlQTElRTYlOTUlQjAlRUYlQkMlODhfQSVFRiVCQyU4OSUyMiUyQyUyMm1ldGFkYXRhJTIyJTNBJTIyJTIyJTJDJTIybWV0YURhdGElMjIlM0ElNUIlNUQlMkMlMjJ0ZXh0JTIyJTNBJTIyTUFYX0FUVEVNUFRTJTIyJTdEJTVEJTdEJTVE&quot;&gt;+ MAX_ATTEMPTS: int&lt;/span&gt;&lt;br&gt;&lt;/p&gt;&lt;hr size=&quot;1&quot;&gt;&lt;p style=&quot;margin:0 0 0 4px;line-height:1.6;&quot;&gt;+ initialize(): void&lt;br&gt;&lt;/p&gt;&lt;p style=&quot;margin:0 0 0 4px;line-height:1.6;&quot;&gt;+ processInput(input: String): boolean&lt;/p&gt;&lt;p style=&quot;margin:0 0 0 4px;line-height:1.6;&quot;&gt;+&amp;nbsp;&lt;span style=&quot;background-color: initial; white-space: pre;&quot;&gt;isGameOver&lt;/span&gt;&lt;span style=&quot;background-color: initial;&quot;&gt;():&amp;nbsp;&lt;/span&gt;&lt;span style=&quot;background-color: initial;&quot;&gt;boolean&lt;/span&gt;&lt;/p&gt;&lt;p style=&quot;margin:0 0 0 4px;line-height:1.6;&quot;&gt;+&amp;nbsp;&lt;span style=&quot;white-space: pre;&quot; data-slate-fragment=&quot;JTVCJTdCJTIydHlwZSUyMiUzQSUyMnBhcmFncmFwaCUyMiUyQyUyMmNoaWxkcmVuJTIyJTNBJTVCJTdCJTIyaWQlMjIlM0ElMjJ3ZW15OFFLbG9lJTIyJTJDJTIycGFyYUlkeCUyMiUzQTAlMkMlMjJzcmMlMjIlM0ElMjJOdW1iZXJsZVZpZXclMjIlMkMlMjJkc3QlMjIlM0ElMjIlRTYlOTUlQjAlRTUlQUQlOTclRTglQTclODYlRTUlOUIlQkUlMjIlMkMlMjJtZXRhZGF0YSUyMiUzQSUyMiUyMiUyQyUyMm1ldGFEYXRhJTIyJTNBJTVCJTVEJTJDJTIydGV4dCUyMiUzQSUyMmlzR2FtZVdvbiUyMiU3RCU1RCU3RCU1RA==&quot;&gt;isGameWon&lt;/span&gt;&lt;span style=&quot;background-color: initial;&quot;&gt;():&amp;nbsp;&lt;/span&gt;&lt;span style=&quot;background-color: initial;&quot;&gt;boolean&lt;/span&gt;&lt;/p&gt;&lt;p style=&quot;margin:0 0 0 4px;line-height:1.6;&quot;&gt;&lt;span style=&quot;background-color: initial;&quot;&gt;+&amp;nbsp;&lt;/span&gt;&lt;span style=&quot;background-color: initial; white-space: pre;&quot; data-slate-fragment=&quot;JTVCJTdCJTIydHlwZSUyMiUzQSUyMnBhcmFncmFwaCUyMiUyQyUyMmNoaWxkcmVuJTIyJTNBJTVCJTdCJTIyaWQlMjIlM0ElMjJSZUc3MndsV3hlJTIyJTJDJTIycGFyYUlkeCUyMiUzQTAlMkMlMjJzcmMlMjIlM0ElMjJnZXRSZXNDaGFycyUyMiUyQyUyMmRzdCUyMiUzQSUyMmdldFJlc0NoYXJzJTIyJTJDJTIybWV0YWRhdGElMjIlM0ElMjIlMjIlMkMlMjJtZXRhRGF0YSUyMiUzQSU1QiU1RCUyQyUyMnRleHQlMjIlM0ElMjJnZXRUYXJnZXROdW1iZXIlMjIlN0QlNUQlN0QlNUQ=&quot;&gt;getTargetNumber&lt;/span&gt;&lt;span style=&quot;background-color: initial;&quot;&gt;():&amp;nbsp;&lt;/span&gt;&lt;span style=&quot;background-color: initial;&quot;&gt;String&lt;/span&gt;&lt;/p&gt;&lt;p style=&quot;margin: 0px 0px 0px 4px; line-height: 1.6;&quot;&gt;+&amp;nbsp;&lt;span style=&quot;white-space: pre;&quot; data-slate-fragment=&quot;JTVCJTdCJTIydHlwZSUyMiUzQSUyMnBhcmFncmFwaCUyMiUyQyUyMmNoaWxkcmVuJTIyJTNBJTVCJTdCJTIyaWQlMjIlM0ElMjJiVlJETzVvbVFCJTIyJTJDJTIycGFyYUlkeCUyMiUzQTAlMkMlMjJzcmMlMjIlM0ElMjJwYWludENvbXBvbmVudCUyMiUyQyUyMmRzdCUyMiUzQSUyMnBhaW50Q29tcG9uZW50JTIyJTJDJTIybWV0YWRhdGElMjIlM0ElMjIlMjIlMkMlMjJtZXRhRGF0YSUyMiUzQSU1QiU1RCUyQyUyMnRleHQlMjIlM0ElMjJnZXRDdXJyZW50R3Vlc3MlMjIlN0QlNUQlN0QlNUQ=&quot;&gt;getCurrentGuess&lt;/span&gt;():&amp;nbsp;&lt;span style=&quot;white-space: pre; background-color: initial;&quot;&gt;StringBuilder&lt;/span&gt;&lt;br&gt;&lt;/p&gt;&lt;p style=&quot;margin: 0px 0px 0px 4px; line-height: 1.6;&quot;&gt;+&amp;nbsp;&lt;span style=&quot;white-space: pre;&quot; data-slate-fragment=&quot;JTVCJTdCJTIydHlwZSUyMiUzQSUyMnBhcmFncmFwaCUyMiUyQyUyMmNoaWxkcmVuJTIyJTNBJTVCJTdCJTIyaWQlMjIlM0ElMjJvVmR5TDJkbGF6JTIyJTJDJTIycGFyYUlkeCUyMiUzQTAlMkMlMjJzcmMlMjIlM0ElMjJnZXRSZW1haW5pbmdBdHRlbXB0cyUyMiUyQyUyMmRzdCUyMiUzQSUyMiVFOCU4RSVCNyVFNSU4RiU5NiVFNSU4OSVBOSVFNCVCRCU5OSVFNSVCMCU5RCVFOCVBRiU5NSVFNiVBQyVBMSVFNiU5NSVCMCUyMiUyQyUyMm1ldGFkYXRhJTIyJTNBJTIyJTIyJTJDJTIybWV0YURhdGElMjIlM0ElNUIlNUQlMkMlMjJ0ZXh0JTIyJTNBJTIyZ2V0UmVtYWluaW5nQXR0ZW1wdHMlMjIlN0QlNUQlN0QlNUQ=&quot;&gt;getRemainingAttempts&lt;/span&gt;():&amp;nbsp;&lt;span style=&quot;background-color: initial; white-space: pre;&quot;&gt;int&lt;/span&gt;&lt;/p&gt;&lt;p style=&quot;margin: 0px 0px 0px 4px; line-height: 1.6;&quot;&gt;+&amp;nbsp;&lt;span style=&quot;white-space: pre;&quot; data-slate-fragment=&quot;JTVCJTdCJTIydHlwZSUyMiUzQSUyMnBhcmFncmFwaCUyMiUyQyUyMmNoaWxkcmVuJTIyJTNBJTVCJTdCJTIyaWQlMjIlM0ElMjJtVlFsRFJneHBlJTIyJTJDJTIycGFyYUlkeCUyMiUzQTAlMkMlMjJzcmMlMjIlM0ElMjJzdGFydE5ld0dhbWUlMjIlMkMlMjJkc3QlMjIlM0ElMjIlRTUlQkMlODAlRTUlQTclOEIlRTYlOTYlQjAlRTYlQjglQjglRTYlODglOEYlMjIlMkMlMjJtZXRhZGF0YSUyMiUzQSUyMiUyMiUyQyUyMm1ldGFEYXRhJTIyJTNBJTVCJTVEJTJDJTIydGV4dCUyMiUzQSUyMmdldFNhbWVDaGFyc2MlMjIlN0QlNUQlN0QlNUQ=&quot;&gt;getSameCharsc&lt;/span&gt;():&amp;nbsp;&lt;span style=&quot;white-space: pre; background-color: initial;&quot;&gt;StringBuilder&lt;/span&gt;&lt;span style=&quot;background-color: initial; white-space: pre;&quot;&gt;&lt;br&gt;&lt;/span&gt;&lt;/p&gt;&lt;p style=&quot;margin: 0px 0px 0px 4px; line-height: 1.6;&quot;&gt;+&amp;nbsp;&lt;span style=&quot;white-space: pre;&quot; data-slate-fragment=&quot;JTVCJTdCJTIydHlwZSUyMiUzQSUyMnBhcmFncmFwaCUyMiUyQyUyMmNoaWxkcmVuJTIyJTNBJTVCJTdCJTIyaWQlMjIlM0ElMjI3QlhwV09hcXBCJTIyJTJDJTIycGFyYUlkeCUyMiUzQTAlMkMlMjJzcmMlMjIlM0ElMjJnZXREaWZmQ2hhcnNjJTIyJTJDJTIyZHN0JTIyJTNBJTIyZ2V0RGlmZkNoYXJzYyUyMiUyQyUyMm1ldGFkYXRhJTIyJTNBJTIyJTIyJTJDJTIybWV0YURhdGElMjIlM0ElNUIlNUQlMkMlMjJ0ZXh0JTIyJTNBJTIyZ2V0RGlmZkNoYXJzYyUyMiU3RCU1RCU3RCU1RA==&quot;&gt;getDiffCharsc&lt;/span&gt;():&amp;nbsp;&lt;span style=&quot;white-space: pre; background-color: initial;&quot;&gt;StringBuilder&lt;/span&gt;&lt;span style=&quot;background-color: initial; white-space: pre;&quot;&gt;&lt;br&gt;&lt;/span&gt;&lt;/p&gt;&lt;p style=&quot;margin: 0px 0px 0px 4px; line-height: 1.6;&quot;&gt;+&amp;nbsp;&lt;span style=&quot;white-space: pre;&quot; data-slate-fragment=&quot;JTVCJTdCJTIydHlwZSUyMiUzQSUyMnBhcmFncmFwaCUyMiUyQyUyMmNoaWxkcmVuJTIyJTNBJTVCJTdCJTIyaWQlMjIlM0ElMjJSZUc3MndsV3hlJTIyJTJDJTIycGFyYUlkeCUyMiUzQTAlMkMlMjJzcmMlMjIlM0ElMjJnZXRSZXNDaGFycyUyMiUyQyUyMmRzdCUyMiUzQSUyMmdldFJlc0NoYXJzJTIyJTJDJTIybWV0YWRhdGElMjIlM0ElMjIlMjIlMkMlMjJtZXRhRGF0YSUyMiUzQSU1QiU1RCUyQyUyMnRleHQlMjIlM0ElMjJnZXRSZXNDaGFycyUyMiU3RCU1RCU3RCU1RA==&quot;&gt;getResChars&lt;/span&gt;():&amp;nbsp;&lt;span style=&quot;background-color: initial; white-space: pre;&quot;&gt;StringBuilder&lt;/span&gt;&lt;/p&gt;&lt;p style=&quot;margin: 0px 0px 0px 4px; line-height: 1.6;&quot;&gt;&lt;span style=&quot;background-color: initial;&quot;&gt;+ getErrmsg(): String&lt;/span&gt;&lt;/p&gt;&lt;p style=&quot;margin: 0px 0px 0px 4px; line-height: 1.6;&quot;&gt;+&amp;nbsp;&lt;span style=&quot;white-space: pre;&quot; data-slate-fragment=&quot;JTVCJTdCJTIydHlwZSUyMiUzQSUyMnBhcmFncmFwaCUyMiUyQyUyMmNoaWxkcmVuJTIyJTNBJTVCJTdCJTIyaWQlMjIlM0ElMjJrVjFFMjRxMGdWJTIyJTJDJTIycGFyYUlkeCUyMiUzQTAlMkMlMjJzcmMlMjIlM0ElMjJzZXRSYW5kRmxhZygpJTIyJTJDJTIyZHN0JTIyJTNBJTIyc2V0UmFuZEZsYWclRUYlQkMlODglRUYlQkMlODklMjIlMkMlMjJtZXRhZGF0YSUyMiUzQSUyMiUyMiUyQyUyMm1ldGFEYXRhJTIyJTNBJTVCJTVEJTJDJTIydGV4dCUyMiUzQSUyMnNldFJhbmRGbGFnJTIyJTdEJTVEJTdEJTVE&quot;&gt;setValidFlag&lt;/span&gt;&lt;span style=&quot;background-color: initial;&quot;&gt;(validFlag:&amp;nbsp;&lt;/span&gt;boolean&lt;span style=&quot;background-color: initial;&quot;&gt;): void&lt;/span&gt;&lt;span style=&quot;background-color: initial; white-space: pre;&quot;&gt;&lt;br&gt;&lt;/span&gt;&lt;/p&gt;&lt;p style=&quot;margin: 0px 0px 0px 4px; line-height: 1.6;&quot;&gt;+&amp;nbsp;&lt;span style=&quot;white-space: pre;&quot; data-slate-fragment=&quot;JTVCJTdCJTIydHlwZSUyMiUzQSUyMnBhcmFncmFwaCUyMiUyQyUyMmNoaWxkcmVuJTIyJTNBJTVCJTdCJTIyaWQlMjIlM0ElMjJrVjFFMjRxMGdWJTIyJTJDJTIycGFyYUlkeCUyMiUzQTAlMkMlMjJzcmMlMjIlM0ElMjJzZXRSYW5kRmxhZygpJTIyJTJDJTIyZHN0JTIyJTNBJTIyc2V0UmFuZEZsYWclRUYlQkMlODglRUYlQkMlODklMjIlMkMlMjJtZXRhZGF0YSUyMiUzQSUyMiUyMiUyQyUyMm1ldGFEYXRhJTIyJTNBJTVCJTVEJTJDJTIydGV4dCUyMiUzQSUyMnNldFJhbmRGbGFnJTIyJTdEJTVEJTdEJTVE&quot;&gt;setTestFlag&lt;/span&gt;&lt;span style=&quot;background-color: initial;&quot;&gt;(t&lt;/span&gt;&lt;span style=&quot;white-space: pre;&quot;&gt;estFlag&lt;/span&gt;&lt;span style=&quot;background-color: initial;&quot;&gt;:&amp;nbsp;&lt;/span&gt;boolean&lt;span style=&quot;background-color: initial;&quot;&gt;): void&lt;/span&gt;&lt;br&gt;&lt;/p&gt;&lt;p style=&quot;margin: 0px 0px 0px 4px; line-height: 1.6;&quot;&gt;+&amp;nbsp;&lt;span style=&quot;white-space: pre;&quot; data-slate-fragment=&quot;JTVCJTdCJTIydHlwZSUyMiUzQSUyMnBhcmFncmFwaCUyMiUyQyUyMmNoaWxkcmVuJTIyJTNBJTVCJTdCJTIyaWQlMjIlM0ElMjJrVjFFMjRxMGdWJTIyJTJDJTIycGFyYUlkeCUyMiUzQTAlMkMlMjJzcmMlMjIlM0ElMjJzZXRSYW5kRmxhZygpJTIyJTJDJTIyZHN0JTIyJTNBJTIyc2V0UmFuZEZsYWclRUYlQkMlODglRUYlQkMlODklMjIlMkMlMjJtZXRhZGF0YSUyMiUzQSUyMiUyMiUyQyUyMm1ldGFEYXRhJTIyJTNBJTVCJTVEJTJDJTIydGV4dCUyMiUzQSUyMnNldFJhbmRGbGFnJTIyJTdEJTVEJTdEJTVE&quot;&gt;setRandFlag&lt;/span&gt;&lt;span style=&quot;background-color: initial;&quot;&gt;(r&lt;/span&gt;&lt;span style=&quot;white-space: pre;&quot;&gt;andFlag&lt;/span&gt;&lt;span style=&quot;background-color: initial;&quot;&gt;:&amp;nbsp;&lt;/span&gt;boolean&lt;span style=&quot;background-color: initial;&quot;&gt;): void&lt;/span&gt;&lt;/p&gt;&lt;p style=&quot;margin: 0px 0px 0px 4px; line-height: 1.6;&quot;&gt;&lt;span style=&quot;background-color: initial;&quot;&gt;+ compareStrings(String, String): StringBuilder&lt;/span&gt;&lt;/p&gt;&lt;p style=&quot;margin:0 0 0 4px;line-height:1.6;&quot;&gt;+ startNewGame(): void&lt;br&gt;+ validateExpression(String): boolean&lt;br&gt;&lt;/p&gt;" style="verticalAlign=top;align=left;overflow=fill;fontSize=14;fontFamily=Helvetica;html=1;rounded=0;shadow=0;comic=0;labelBackgroundColor=none;strokeWidth=1;" vertex="1" parent="1">
          <mxGeometry x="1053" y="694" width="322" height="468" as="geometry" />
        </mxCell>
        <mxCell id="peYF-icMhrGueYidbXqp-8" value="" style="html=1;rounded=0;edgeStyle=orthogonalEdgeStyle;dashed=1;startArrow=none;endArrow=block;endSize=12;strokeColor=#000000;exitX=1.007;exitY=0.574;exitDx=0;exitDy=0;endFill=0;entryX=0;entryY=0.75;entryDx=0;entryDy=0;dashPattern=8 8;exitPerimeter=0;" edge="1" parent="1" source="node3" target="peYF-icMhrGueYidbXqp-7">
          <mxGeometry width="50" height="50" relative="1" as="geometry">
            <mxPoint x="1006" y="924" as="sourcePoint" />
            <mxPoint x="1016" y="720" as="targetPoint" />
          </mxGeometry>
        </mxCell>
        <mxCell id="peYF-icMhrGueYidbXqp-9" value="&lt;p style=&quot;margin:0px;margin-top:4px;text-align:center;&quot;&gt;&lt;b&gt;GUIApp&lt;/b&gt;&lt;/p&gt;&lt;hr size=&quot;1&quot;&gt;&lt;p style=&quot;margin:0 0 0 4px;line-height:1.6;&quot;&gt;&lt;span style=&quot;background-color: initial;&quot;&gt;+ createAndShowGUI(): void&lt;/span&gt;&lt;/p&gt;&lt;p style=&quot;margin:0 0 0 4px;line-height:1.6;&quot;&gt;+ main(args: String[]): void&lt;/p&gt;" style="verticalAlign=top;align=left;overflow=fill;fontSize=14;fontFamily=Helvetica;html=1;rounded=0;shadow=0;comic=0;labelBackgroundColor=none;strokeWidth=1;" vertex="1" parent="1">
          <mxGeometry x="1099" y="1714" width="211" height="90" as="geometry" />
        </mxCell>
        <mxCell id="peYF-icMhrGueYidbXqp-11" value="&lt;p style=&quot;margin:0px;margin-top:4px;text-align:center;&quot;&gt;&lt;b&gt;NumberleController&lt;/b&gt;&lt;/p&gt;&lt;hr size=&quot;1&quot;&gt;&lt;p style=&quot;margin:0 0 0 4px;line-height:1.6;&quot;&gt;&lt;span style=&quot;background-color: initial;&quot;&gt;- view: NumberleView&lt;/span&gt;&lt;br&gt;&lt;/p&gt;&lt;p style=&quot;margin:0 0 0 4px;line-height:1.6;&quot;&gt;- model:&amp;nbsp;&lt;span style=&quot;background-color: initial;&quot;&gt;INumberleModel&lt;/span&gt;&lt;br&gt;&lt;/p&gt;&lt;hr size=&quot;1&quot;&gt;&lt;p style=&quot;margin:0 0 0 4px;line-height:1.6;&quot;&gt;+&amp;nbsp;&lt;span style=&quot;white-space: pre; background-color: initial;&quot;&gt;NumberleController(model: &lt;/span&gt;&lt;span style=&quot;white-space: pre; background-color: initial;&quot;&gt;INumberleModel&lt;/span&gt;&lt;span style=&quot;background-color: initial; white-space: pre;&quot;&gt;)&lt;/span&gt;&lt;/p&gt;&lt;p style=&quot;margin:0 0 0 4px;line-height:1.6;&quot;&gt;+&amp;nbsp;&lt;span style=&quot;white-space: pre;&quot; data-slate-fragment=&quot;JTVCJTdCJTIydHlwZSUyMiUzQSUyMnBhcmFncmFwaCUyMiUyQyUyMmNoaWxkcmVuJTIyJTNBJTVCJTdCJTIyaWQlMjIlM0ElMjJrVjFFMjRxMGdWJTIyJTJDJTIycGFyYUlkeCUyMiUzQTAlMkMlMjJzcmMlMjIlM0ElMjJzZXRSYW5kRmxhZygpJTIyJTJDJTIyZHN0JTIyJTNBJTIyc2V0UmFuZEZsYWclRUYlQkMlODglRUYlQkMlODklMjIlMkMlMjJtZXRhZGF0YSUyMiUzQSUyMiUyMiUyQyUyMm1ldGFEYXRhJTIyJTNBJTVCJTVEJTJDJTIydGV4dCUyMiUzQSUyMnNldFJhbmRGbGFnJTIyJTdEJTVEJTdEJTVE&quot;&gt;setView&lt;/span&gt;&lt;span style=&quot;background-color: initial;&quot;&gt;(view:&amp;nbsp;&lt;/span&gt;&lt;span style=&quot;white-space: pre;&quot;&gt;NumberleView&lt;/span&gt;&lt;span style=&quot;background-color: initial;&quot;&gt;): void&lt;/span&gt;&lt;/p&gt;&lt;p style=&quot;margin:0 0 0 4px;line-height:1.6;&quot;&gt;+ processInput(view: String): void&lt;/p&gt;&lt;p style=&quot;margin:0 0 0 4px;line-height:1.6;&quot;&gt;+&amp;nbsp;&lt;span style=&quot;white-space: pre; background-color: initial;&quot;&gt;isGameOver&lt;/span&gt;&lt;span style=&quot;background-color: initial;&quot;&gt;():&amp;nbsp;&lt;/span&gt;&lt;span style=&quot;background-color: initial;&quot;&gt;boolean&lt;/span&gt;&lt;/p&gt;&lt;p style=&quot;margin:0 0 0 4px;line-height:1.6;&quot;&gt;+&amp;nbsp;&lt;span style=&quot;white-space: pre;&quot; data-slate-fragment=&quot;JTVCJTdCJTIydHlwZSUyMiUzQSUyMnBhcmFncmFwaCUyMiUyQyUyMmNoaWxkcmVuJTIyJTNBJTVCJTdCJTIyaWQlMjIlM0ElMjJ3ZW15OFFLbG9lJTIyJTJDJTIycGFyYUlkeCUyMiUzQTAlMkMlMjJzcmMlMjIlM0ElMjJOdW1iZXJsZVZpZXclMjIlMkMlMjJkc3QlMjIlM0ElMjIlRTYlOTUlQjAlRTUlQUQlOTclRTglQTclODYlRTUlOUIlQkUlMjIlMkMlMjJtZXRhZGF0YSUyMiUzQSUyMiUyMiUyQyUyMm1ldGFEYXRhJTIyJTNBJTVCJTVEJTJDJTIydGV4dCUyMiUzQSUyMmlzR2FtZVdvbiUyMiU3RCU1RCU3RCU1RA==&quot;&gt;isGameWon&lt;/span&gt;&lt;span style=&quot;background-color: initial;&quot;&gt;():&amp;nbsp;&lt;/span&gt;&lt;span style=&quot;background-color: initial;&quot;&gt;boolean&lt;/span&gt;&lt;span style=&quot;background-color: initial;&quot;&gt;&lt;br&gt;&lt;/span&gt;&lt;/p&gt;&lt;p style=&quot;margin: 0px 0px 0px 4px; line-height: 1.6;&quot;&gt;&lt;span style=&quot;background-color: initial;&quot;&gt;+&amp;nbsp;&lt;/span&gt;&lt;span style=&quot;background-color: initial; white-space: pre;&quot; data-slate-fragment=&quot;JTVCJTdCJTIydHlwZSUyMiUzQSUyMnBhcmFncmFwaCUyMiUyQyUyMmNoaWxkcmVuJTIyJTNBJTVCJTdCJTIyaWQlMjIlM0ElMjJSZUc3MndsV3hlJTIyJTJDJTIycGFyYUlkeCUyMiUzQTAlMkMlMjJzcmMlMjIlM0ElMjJnZXRSZXNDaGFycyUyMiUyQyUyMmRzdCUyMiUzQSUyMmdldFJlc0NoYXJzJTIyJTJDJTIybWV0YWRhdGElMjIlM0ElMjIlMjIlMkMlMjJtZXRhRGF0YSUyMiUzQSU1QiU1RCUyQyUyMnRleHQlMjIlM0ElMjJnZXRUYXJnZXROdW1iZXIlMjIlN0QlNUQlN0QlNUQ=&quot;&gt;getTargetWord&lt;/span&gt;&lt;span style=&quot;background-color: initial;&quot;&gt;():&amp;nbsp;&lt;/span&gt;&lt;span style=&quot;background-color: initial;&quot;&gt;String&lt;/span&gt;&lt;/p&gt;&lt;p style=&quot;margin: 0px 0px 0px 4px; line-height: 1.6;&quot;&gt;+&amp;nbsp;&lt;span style=&quot;white-space: pre;&quot; data-slate-fragment=&quot;JTVCJTdCJTIydHlwZSUyMiUzQSUyMnBhcmFncmFwaCUyMiUyQyUyMmNoaWxkcmVuJTIyJTNBJTVCJTdCJTIyaWQlMjIlM0ElMjJiVlJETzVvbVFCJTIyJTJDJTIycGFyYUlkeCUyMiUzQTAlMkMlMjJzcmMlMjIlM0ElMjJwYWludENvbXBvbmVudCUyMiUyQyUyMmRzdCUyMiUzQSUyMnBhaW50Q29tcG9uZW50JTIyJTJDJTIybWV0YWRhdGElMjIlM0ElMjIlMjIlMkMlMjJtZXRhRGF0YSUyMiUzQSU1QiU1RCUyQyUyMnRleHQlMjIlM0ElMjJnZXRDdXJyZW50R3Vlc3MlMjIlN0QlNUQlN0QlNUQ=&quot;&gt;getCurrentGuess&lt;/span&gt;():&amp;nbsp;&lt;span style=&quot;white-space: pre; background-color: initial;&quot;&gt;StringBuilder&lt;/span&gt;&lt;br&gt;&lt;/p&gt;&lt;p style=&quot;margin: 0px 0px 0px 4px; line-height: 1.6;&quot;&gt;+&amp;nbsp;&lt;span style=&quot;white-space: pre;&quot; data-slate-fragment=&quot;JTVCJTdCJTIydHlwZSUyMiUzQSUyMnBhcmFncmFwaCUyMiUyQyUyMmNoaWxkcmVuJTIyJTNBJTVCJTdCJTIyaWQlMjIlM0ElMjJvVmR5TDJkbGF6JTIyJTJDJTIycGFyYUlkeCUyMiUzQTAlMkMlMjJzcmMlMjIlM0ElMjJnZXRSZW1haW5pbmdBdHRlbXB0cyUyMiUyQyUyMmRzdCUyMiUzQSUyMiVFOCU4RSVCNyVFNSU4RiU5NiVFNSU4OSVBOSVFNCVCRCU5OSVFNSVCMCU5RCVFOCVBRiU5NSVFNiVBQyVBMSVFNiU5NSVCMCUyMiUyQyUyMm1ldGFkYXRhJTIyJTNBJTIyJTIyJTJDJTIybWV0YURhdGElMjIlM0ElNUIlNUQlMkMlMjJ0ZXh0JTIyJTNBJTIyZ2V0UmVtYWluaW5nQXR0ZW1wdHMlMjIlN0QlNUQlN0QlNUQ=&quot;&gt;getRemainingAttempts&lt;/span&gt;():&amp;nbsp;&lt;span style=&quot;background-color: initial; white-space: pre;&quot;&gt;int&lt;/span&gt;&lt;/p&gt;&lt;p style=&quot;margin:0 0 0 4px;line-height:1.6;&quot;&gt;+ startNewGame(): void&lt;span style=&quot;background-color: initial;&quot;&gt;&lt;br&gt;&lt;/span&gt;&lt;/p&gt;&lt;p style=&quot;margin: 0px 0px 0px 4px; line-height: 1.6;&quot;&gt;+&amp;nbsp;&lt;span style=&quot;white-space: pre;&quot; data-slate-fragment=&quot;JTVCJTdCJTIydHlwZSUyMiUzQSUyMnBhcmFncmFwaCUyMiUyQyUyMmNoaWxkcmVuJTIyJTNBJTVCJTdCJTIyaWQlMjIlM0ElMjJtVlFsRFJneHBlJTIyJTJDJTIycGFyYUlkeCUyMiUzQTAlMkMlMjJzcmMlMjIlM0ElMjJzdGFydE5ld0dhbWUlMjIlMkMlMjJkc3QlMjIlM0ElMjIlRTUlQkMlODAlRTUlQTclOEIlRTYlOTYlQjAlRTYlQjglQjglRTYlODglOEYlMjIlMkMlMjJtZXRhZGF0YSUyMiUzQSUyMiUyMiUyQyUyMm1ldGFEYXRhJTIyJTNBJTVCJTVEJTJDJTIydGV4dCUyMiUzQSUyMmdldFNhbWVDaGFyc2MlMjIlN0QlNUQlN0QlNUQ=&quot;&gt;getSameCharsc&lt;/span&gt;():&amp;nbsp;&lt;span style=&quot;white-space: pre; background-color: initial;&quot;&gt;StringBuilder&lt;/span&gt;&lt;span style=&quot;background-color: initial; white-space: pre;&quot;&gt;&lt;br&gt;&lt;/span&gt;&lt;/p&gt;&lt;p style=&quot;margin: 0px 0px 0px 4px; line-height: 1.6;&quot;&gt;+&amp;nbsp;&lt;span style=&quot;white-space: pre;&quot; data-slate-fragment=&quot;JTVCJTdCJTIydHlwZSUyMiUzQSUyMnBhcmFncmFwaCUyMiUyQyUyMmNoaWxkcmVuJTIyJTNBJTVCJTdCJTIyaWQlMjIlM0ElMjI3QlhwV09hcXBCJTIyJTJDJTIycGFyYUlkeCUyMiUzQTAlMkMlMjJzcmMlMjIlM0ElMjJnZXREaWZmQ2hhcnNjJTIyJTJDJTIyZHN0JTIyJTNBJTIyZ2V0RGlmZkNoYXJzYyUyMiUyQyUyMm1ldGFkYXRhJTIyJTNBJTIyJTIyJTJDJTIybWV0YURhdGElMjIlM0ElNUIlNUQlMkMlMjJ0ZXh0JTIyJTNBJTIyZ2V0RGlmZkNoYXJzYyUyMiU3RCU1RCU3RCU1RA==&quot;&gt;getDiffCharsc&lt;/span&gt;():&amp;nbsp;&lt;span style=&quot;white-space: pre; background-color: initial;&quot;&gt;StringBuilder&lt;/span&gt;&lt;span style=&quot;background-color: initial; white-space: pre;&quot;&gt;&lt;br&gt;&lt;/span&gt;&lt;/p&gt;&lt;p style=&quot;margin: 0px 0px 0px 4px; line-height: 1.6;&quot;&gt;+&amp;nbsp;&lt;span style=&quot;white-space: pre;&quot; data-slate-fragment=&quot;JTVCJTdCJTIydHlwZSUyMiUzQSUyMnBhcmFncmFwaCUyMiUyQyUyMmNoaWxkcmVuJTIyJTNBJTVCJTdCJTIyaWQlMjIlM0ElMjJSZUc3MndsV3hlJTIyJTJDJTIycGFyYUlkeCUyMiUzQTAlMkMlMjJzcmMlMjIlM0ElMjJnZXRSZXNDaGFycyUyMiUyQyUyMmRzdCUyMiUzQSUyMmdldFJlc0NoYXJzJTIyJTJDJTIybWV0YWRhdGElMjIlM0ElMjIlMjIlMkMlMjJtZXRhRGF0YSUyMiUzQSU1QiU1RCUyQyUyMnRleHQlMjIlM0ElMjJnZXRSZXNDaGFycyUyMiU3RCU1RCU3RCU1RA==&quot;&gt;getResChars&lt;/span&gt;():&amp;nbsp;&lt;span style=&quot;background-color: initial; white-space: pre;&quot;&gt;StringBuilder&lt;/span&gt;&lt;/p&gt;&lt;p style=&quot;margin: 0px 0px 0px 4px; line-height: 1.6;&quot;&gt;+ getErrmsg(): String&lt;span style=&quot;background-color: initial; white-space: pre;&quot;&gt;&lt;br&gt;&lt;/span&gt;&lt;/p&gt;&lt;p style=&quot;margin:0 0 0 4px;line-height:1.6;&quot;&gt;+&amp;nbsp;&lt;span style=&quot;white-space: pre;&quot; data-slate-fragment=&quot;JTVCJTdCJTIydHlwZSUyMiUzQSUyMnBhcmFncmFwaCUyMiUyQyUyMmNoaWxkcmVuJTIyJTNBJTVCJTdCJTIyaWQlMjIlM0ElMjJrVjFFMjRxMGdWJTIyJTJDJTIycGFyYUlkeCUyMiUzQTAlMkMlMjJzcmMlMjIlM0ElMjJzZXRSYW5kRmxhZygpJTIyJTJDJTIyZHN0JTIyJTNBJTIyc2V0UmFuZEZsYWclRUYlQkMlODglRUYlQkMlODklMjIlMkMlMjJtZXRhZGF0YSUyMiUzQSUyMiUyMiUyQyUyMm1ldGFEYXRhJTIyJTNBJTVCJTVEJTJDJTIydGV4dCUyMiUzQSUyMnNldFJhbmRGbGFnJTIyJTdEJTVEJTdEJTVE&quot;&gt;setRandFlag&lt;/span&gt;&lt;span style=&quot;background-color: initial;&quot;&gt;(flag:&amp;nbsp;&lt;/span&gt;boolean&lt;span style=&quot;background-color: initial;&quot;&gt;): void&lt;/span&gt;&lt;br&gt;&lt;/p&gt;&lt;p style=&quot;margin:0 0 0 4px;line-height:1.6;&quot;&gt;+&amp;nbsp;&lt;span style=&quot;white-space: pre;&quot; data-slate-fragment=&quot;JTVCJTdCJTIydHlwZSUyMiUzQSUyMnBhcmFncmFwaCUyMiUyQyUyMmNoaWxkcmVuJTIyJTNBJTVCJTdCJTIyaWQlMjIlM0ElMjJrVjFFMjRxMGdWJTIyJTJDJTIycGFyYUlkeCUyMiUzQTAlMkMlMjJzcmMlMjIlM0ElMjJzZXRSYW5kRmxhZygpJTIyJTJDJTIyZHN0JTIyJTNBJTIyc2V0UmFuZEZsYWclRUYlQkMlODglRUYlQkMlODklMjIlMkMlMjJtZXRhZGF0YSUyMiUzQSUyMiUyMiUyQyUyMm1ldGFEYXRhJTIyJTNBJTVCJTVEJTJDJTIydGV4dCUyMiUzQSUyMnNldFJhbmRGbGFnJTIyJTdEJTVEJTdEJTVE&quot;&gt;setTestFlag&lt;/span&gt;&lt;span style=&quot;background-color: initial;&quot;&gt;(flag:&amp;nbsp;&lt;/span&gt;boolean&lt;span style=&quot;background-color: initial;&quot;&gt;): void&lt;/span&gt;&lt;span style=&quot;background-color: initial;&quot;&gt;&lt;br&gt;&lt;/span&gt;&lt;/p&gt;&lt;p style=&quot;margin:0 0 0 4px;line-height:1.6;&quot;&gt;+&amp;nbsp;&lt;span style=&quot;white-space: pre;&quot; data-slate-fragment=&quot;JTVCJTdCJTIydHlwZSUyMiUzQSUyMnBhcmFncmFwaCUyMiUyQyUyMmNoaWxkcmVuJTIyJTNBJTVCJTdCJTIyaWQlMjIlM0ElMjJrVjFFMjRxMGdWJTIyJTJDJTIycGFyYUlkeCUyMiUzQTAlMkMlMjJzcmMlMjIlM0ElMjJzZXRSYW5kRmxhZygpJTIyJTJDJTIyZHN0JTIyJTNBJTIyc2V0UmFuZEZsYWclRUYlQkMlODglRUYlQkMlODklMjIlMkMlMjJtZXRhZGF0YSUyMiUzQSUyMiUyMiUyQyUyMm1ldGFEYXRhJTIyJTNBJTVCJTVEJTJDJTIydGV4dCUyMiUzQSUyMnNldFJhbmRGbGFnJTIyJTdEJTVEJTdEJTVE&quot;&gt;setValidFlag&lt;/span&gt;&lt;span style=&quot;background-color: initial;&quot;&gt;(flag:&amp;nbsp;&lt;/span&gt;boolean&lt;span style=&quot;background-color: initial;&quot;&gt;): void&lt;/span&gt;&lt;/p&gt;" style="verticalAlign=top;align=left;overflow=fill;fontSize=14;fontFamily=Helvetica;html=1;rounded=0;shadow=0;comic=0;labelBackgroundColor=none;strokeWidth=1;" vertex="1" parent="1">
          <mxGeometry x="1070" y="1223" width="298" height="441" as="geometry" />
        </mxCell>
        <mxCell id="peYF-icMhrGueYidbXqp-16" value="" style="html=1;rounded=0;edgeStyle=orthogonalEdgeStyle;dashed=0;startArrow=diamondThin;endArrow=none;endSize=12;strokeColor=#595959;exitX=-0.002;exitY=0.285;exitDx=0;exitDy=0;entryX=0.999;entryY=0.305;entryDx=0;entryDy=0;startFill=1;startSize=12;endFill=0;exitPerimeter=0;entryPerimeter=0;" edge="1" parent="1" source="peYF-icMhrGueYidbXqp-1" target="peYF-icMhrGueYidbXqp-7">
          <mxGeometry width="50" height="50" relative="1" as="geometry">
            <mxPoint x="1271.23" y="1264.73" as="sourcePoint" />
            <mxPoint x="1448.23" y="1164.73" as="targetPoint" />
            <Array as="points">
              <mxPoint x="1443" y="837" />
            </Array>
          </mxGeometry>
        </mxCell>
        <mxCell id="peYF-icMhrGueYidbXqp-20" value="" style="html=1;rounded=0;edgeStyle=orthogonalEdgeStyle;dashed=0;startArrow=diamondThin;endArrow=none;endSize=12;strokeColor=#595959;exitX=0.451;exitY=0;exitDx=0;exitDy=0;entryX=0.47;entryY=1;entryDx=0;entryDy=0;startFill=1;startSize=12;endFill=0;exitPerimeter=0;entryPerimeter=0;" edge="1" parent="1" source="peYF-icMhrGueYidbXqp-11" target="peYF-icMhrGueYidbXqp-7">
          <mxGeometry width="50" height="50" relative="1" as="geometry">
            <mxPoint x="1470" y="1475" as="sourcePoint" />
            <mxPoint x="1647" y="1375" as="targetPoint" />
          </mxGeometry>
        </mxCell>
        <mxCell id="peYF-icMhrGueYidbXqp-25" value="" style="html=1;rounded=1;edgeStyle=orthogonalEdgeStyle;dashed=1;startArrow=none;endArrow=openThin;endSize=12;strokeColor=#595959;exitX=0;exitY=0.5;exitDx=0;exitDy=0;entryX=0.638;entryY=1.002;entryDx=0;entryDy=0;entryPerimeter=0;dashPattern=8 8;" edge="1" parent="1" source="peYF-icMhrGueYidbXqp-9" target="node3">
          <mxGeometry width="50" height="50" relative="1" as="geometry">
            <Array as="points" />
            <mxPoint x="961.77" y="1709" as="sourcePoint" />
            <mxPoint x="981.77" y="1400" as="targetPoint" />
          </mxGeometry>
        </mxCell>
        <mxCell id="peYF-icMhrGueYidbXqp-27" value="" style="html=1;rounded=1;edgeStyle=orthogonalEdgeStyle;dashed=1;startArrow=none;endArrow=openThin;endSize=12;strokeColor=#595959;exitX=0.447;exitY=-0.045;exitDx=0;exitDy=0;entryX=0.413;entryY=1.001;entryDx=0;entryDy=0;exitPerimeter=0;dashPattern=8 8;entryPerimeter=0;" edge="1" parent="1" source="peYF-icMhrGueYidbXqp-9" target="peYF-icMhrGueYidbXqp-11">
          <mxGeometry width="50" height="50" relative="1" as="geometry">
            <Array as="points" />
            <mxPoint x="1193" y="1679" as="sourcePoint" />
            <mxPoint x="1000" y="1330" as="targetPoint" />
          </mxGeometry>
        </mxCell>
        <mxCell id="peYF-icMhrGueYidbXqp-29" value="" style="html=1;rounded=0;edgeStyle=orthogonalEdgeStyle;dashed=1;startArrow=none;endArrow=openThin;endSize=12;strokeColor=#595959;exitX=1;exitY=0.5;exitDx=0;exitDy=0;entryX=-0.002;entryY=0.694;entryDx=0;entryDy=0;entryPerimeter=0;dashPattern=8 8;" edge="1" parent="1" source="peYF-icMhrGueYidbXqp-9" target="peYF-icMhrGueYidbXqp-1">
          <mxGeometry width="50" height="50" relative="1" as="geometry">
            <Array as="points">
              <mxPoint x="1448" y="1759" />
              <mxPoint x="1448" y="1046" />
            </Array>
            <mxPoint x="1270" y="1814" as="sourcePoint" />
            <mxPoint x="1340" y="1590" as="targetPoint" />
          </mxGeometry>
        </mxCell>
        <mxCell id="peYF-icMhrGueYidbXqp-30" value="&lt;font style=&quot;font-size: 12px;&quot;&gt;«create»&lt;/font&gt;" style="edgeLabel;resizable=0;html=1;align=left;verticalAlign=top;strokeColor=default;" vertex="1" connectable="0" parent="peYF-icMhrGueYidbXqp-29">
          <mxGeometry x="638" y="1647" as="geometry" />
        </mxCell>
        <mxCell id="peYF-icMhrGueYidbXqp-31" value="" style="html=1;rounded=0;edgeStyle=orthogonalEdgeStyle;dashed=0;startArrow=none;endArrow=block;endSize=12;strokeColor=#000000;exitX=0.5;exitY=1;exitDx=0;exitDy=0;entryX=0.5;entryY=0;entryDx=0;entryDy=0;endFill=0;" edge="1" parent="1" source="peYF-icMhrGueYidbXqp-3" target="peYF-icMhrGueYidbXqp-4">
          <mxGeometry width="50" height="50" relative="1" as="geometry">
            <mxPoint x="2390" y="1047" as="sourcePoint" />
            <mxPoint x="2671" y="890" as="targetPoint" />
          </mxGeometry>
        </mxCell>
        <mxCell id="peYF-icMhrGueYidbXqp-32" style="edgeStyle=orthogonalEdgeStyle;rounded=0;orthogonalLoop=1;jettySize=auto;html=1;exitX=0.434;exitY=0.998;exitDx=0;exitDy=0;startArrow=diamondThin;startFill=0;endArrow=none;endFill=0;dashed=1;dashPattern=8 8;endSize=12;startSize=12;exitPerimeter=0;entryX=0.44;entryY=0.011;entryDx=0;entryDy=0;entryPerimeter=0;" edge="1" parent="1" source="peYF-icMhrGueYidbXqp-1" target="peYF-icMhrGueYidbXqp-3">
          <mxGeometry relative="1" as="geometry">
            <mxPoint x="1930" y="719.56" as="sourcePoint" />
            <mxPoint x="1719" y="1274" as="targetPoint" />
          </mxGeometry>
        </mxCell>
        <mxCell id="peYF-icMhrGueYidbXqp-35" value="&lt;font style=&quot;font-size: 12px;&quot;&gt;«create»&lt;/font&gt;" style="edgeLabel;resizable=0;html=1;align=left;verticalAlign=top;strokeColor=default;" vertex="1" connectable="0" parent="1">
          <mxGeometry x="1046" y="1736" as="geometry" />
        </mxCell>
        <mxCell id="peYF-icMhrGueYidbXqp-36" value="&lt;font style=&quot;font-size: 12px;&quot;&gt;«create»&lt;/font&gt;" style="edgeLabel;resizable=0;html=1;align=left;verticalAlign=top;strokeColor=default;" vertex="1" connectable="0" parent="1">
          <mxGeometry x="1194" y="1689" as="geometry" />
        </mxCell>
        <mxCell id="peYF-icMhrGueYidbXqp-37" value="&lt;font style=&quot;font-size: 12px;&quot;&gt;«create»&lt;/font&gt;" style="edgeLabel;resizable=0;html=1;align=left;verticalAlign=top;strokeColor=default;" vertex="1" connectable="0" parent="1">
          <mxGeometry x="1313" y="1736" as="geometry" />
        </mxCell>
        <mxCell id="peYF-icMhrGueYidbXqp-38" value="&lt;font style=&quot;font-size: 14px;&quot;&gt;1&lt;/font&gt;" style="edgeLabel;resizable=0;html=1;align=left;verticalAlign=top;strokeColor=default;" vertex="1" connectable="0" parent="1">
          <mxGeometry x="1209" y="1156" as="geometry" />
        </mxCell>
        <mxCell id="peYF-icMhrGueYidbXqp-39" value="&lt;font style=&quot;font-size: 14px;&quot;&gt;1&lt;/font&gt;" style="edgeLabel;resizable=0;html=1;align=left;verticalAlign=top;strokeColor=default;" vertex="1" connectable="0" parent="1">
          <mxGeometry x="1209" y="1195" as="geometry" />
        </mxCell>
        <mxCell id="peYF-icMhrGueYidbXqp-40" value="&lt;font style=&quot;font-size: 14px;&quot;&gt;1&lt;/font&gt;" style="edgeLabel;resizable=0;html=1;align=left;verticalAlign=top;strokeColor=default;" vertex="1" connectable="0" parent="1">
          <mxGeometry x="1496" y="900" as="geometry" />
        </mxCell>
        <mxCell id="peYF-icMhrGueYidbXqp-41" value="&lt;font style=&quot;font-size: 14px;&quot;&gt;1&lt;/font&gt;" style="edgeLabel;resizable=0;html=1;align=left;verticalAlign=top;strokeColor=default;" vertex="1" connectable="0" parent="1">
          <mxGeometry x="1371" y="1304" as="geometry" />
        </mxCell>
        <mxCell id="peYF-icMhrGueYidbXqp-42" value="&lt;font style=&quot;font-size: 14px;&quot;&gt;1&lt;/font&gt;" style="edgeLabel;resizable=0;html=1;align=left;verticalAlign=top;strokeColor=default;" vertex="1" connectable="0" parent="1">
          <mxGeometry x="1379" y="812" as="geometry" />
        </mxCell>
        <mxCell id="peYF-icMhrGueYidbXqp-43" value="&lt;font style=&quot;font-size: 14px;&quot;&gt;1&lt;/font&gt;" style="edgeLabel;resizable=0;html=1;align=left;verticalAlign=top;strokeColor=default;" vertex="1" connectable="0" parent="1">
          <mxGeometry x="1485" y="812" as="geometry" />
        </mxCell>
        <mxCell id="peYF-icMhrGueYidbXqp-44" value="&lt;p style=&quot;margin:0px;margin-top:4px;text-align:center;&quot;&gt;&lt;span style=&quot;white-space: pre;&quot; data-slate-fragment=&quot;JTVCJTdCJTIydHlwZSUyMiUzQSUyMnBhcmFncmFwaCUyMiUyQyUyMmNoaWxkcmVuJTIyJTNBJTVCJTdCJTIyaWQlMjIlM0ElMjJtVlFsRFoza0plJTIyJTJDJTIycGFyYUlkeCUyMiUzQTAlMkMlMjJzcmMlMjIlM0ElMjJOdW1iZXJsZUNvbnRyb2xsZXIoSU51bWJlcmxlTW9kZWwlMjBtb2RlbCklMjIlMkMlMjJkc3QlMjIlM0ElMjJOdW1iZXJsZUNvbnRyb2xsZXIlRUYlQkMlODhJTnVtYmVybGVNb2RlbCVFNSU5RSU4QiVFNSU4RiVCNyVFRiVCQyU4OSUyMiUyQyUyMm1ldGFkYXRhJTIyJTNBJTIyJTIyJTJDJTIybWV0YURhdGElMjIlM0ElNUIlNUQlMkMlMjJ0ZXh0JTIyJTNBJTIyTnVtYmVybGVNb2RlbFRlc3QlMjIlN0QlNUQlN0QlNUQ=&quot;&gt;&lt;b&gt;NumberleModelTest&lt;/b&gt;&lt;/span&gt;&lt;br&gt;&lt;/p&gt;&lt;hr size=&quot;1&quot;&gt;&lt;p style=&quot;margin: 4px 0px 0px;&quot;&gt;&amp;nbsp;-&amp;nbsp;model:&amp;nbsp;&lt;span style=&quot;white-space: pre; background-color: initial;&quot;&gt;INumberleModel&lt;/span&gt;&lt;br&gt;&lt;/p&gt;&lt;hr size=&quot;1&quot;&gt;&lt;p style=&quot;margin: 0px 0px 0px 4px; line-height: 1.6;&quot;&gt;&lt;span style=&quot;background-color: initial;&quot;&gt;+&amp;nbsp;&lt;/span&gt;&lt;span style=&quot;white-space: pre;&quot; data-slate-fragment=&quot;JTVCJTdCJTIydHlwZSUyMiUzQSUyMnBhcmFncmFwaCUyMiUyQyUyMmNoaWxkcmVuJTIyJTNBJTVCJTdCJTIyaWQlMjIlM0ElMjIzZUU0OE9FZEpCJTIyJTJDJTIycGFyYUlkeCUyMiUzQTAlMkMlMjJzcmMlMjIlM0ElMjJOdW1iZXJsZU1vZGVsVGVzdF9TdWNjZXNzKCklMjIlMkMlMjJkc3QlMjIlM0ElMjIlRTYlOTUlQjAlRTUlQUQlOTclRTYlQTglQTElRTUlOUUlOEIlRTYlQjUlOEIlRTglQUYlOTUlRTYlODglOTAlRTUlOEElOUYlRUYlQkMlODglRUYlQkMlODklMjIlMkMlMjJtZXRhZGF0YSUyMiUzQSUyMiUyMiUyQyUyMm1ldGFEYXRhJTIyJTNBJTVCJTVEJTJDJTIydGV4dCUyMiUzQSUyMk51bWJlcmxlTW9kZWxUZXN0X1N1Y2Nlc3MlMjIlN0QlNUQlN0QlNUQ=&quot;&gt;NumberleModelTest_Success&lt;/span&gt;&lt;span style=&quot;background-color: initial;&quot;&gt;(): void&lt;/span&gt;&lt;br&gt;&lt;/p&gt;&lt;p style=&quot;margin:0 0 0 4px;line-height:1.6;&quot;&gt;&lt;span style=&quot;background-color: initial;&quot;&gt;+&amp;nbsp;&lt;/span&gt;&lt;span style=&quot;white-space: pre;&quot; data-slate-fragment=&quot;JTVCJTdCJTIydHlwZSUyMiUzQSUyMnBhcmFncmFwaCUyMiUyQyUyMmNoaWxkcmVuJTIyJTNBJTVCJTdCJTIyaWQlMjIlM0ElMjJremdtTHhXYUFlJTIyJTJDJTIycGFyYUlkeCUyMiUzQTI5JTJDJTIyc3JjJTIyJTNBJTIyTnVtYmVybGVNb2RlbFRlc3RfTG9zZVZhbGlkT2ZmJTIyJTJDJTIyZHN0JTIyJTNBJTIyTnVtYmVybGVNb2RlbFRlc3QtTG9zZVZhbGlkT2ZmJTIyJTJDJTIybWV0YWRhdGElMjIlM0ElMjIlMjIlMkMlMjJtZXRhRGF0YSUyMiUzQSU1QiU1RCUyQyUyMnRleHQlMjIlM0ElMjJOdW1iZXJsZU1vZGVsVGVzdF9Mb3NlVmFsaWRPZmYlMjIlN0QlNUQlN0QlNUQ=&quot;&gt;NumberleModelTest_LoseValidOff&lt;/span&gt;&lt;span style=&quot;background-color: initial;&quot;&gt;(): void&lt;/span&gt;&lt;br&gt;&lt;span style=&quot;background-color: initial;&quot;&gt;+&amp;nbsp;&lt;/span&gt;&lt;span style=&quot;white-space: pre;&quot; data-slate-fragment=&quot;JTVCJTdCJTIydHlwZSUyMiUzQSUyMnBhcmFncmFwaCUyMiUyQyUyMmNoaWxkcmVuJTIyJTNBJTVCJTdCJTIyaWQlMjIlM0ElMjJremdtTGJkWUVlJTIyJTJDJTIycGFyYUlkeCUyMiUzQTMwJTJDJTIyc3JjJTIyJTNBJTIyTnVtYmVybGVNb2RlbFRlc3RfRXJyb3JWYWxpZE9uJTIyJTJDJTIyZHN0JTIyJTNBJTIyTnVtYmVybGVNb2RlbFRlc3QtRXJyb3JWYWxpZE9uJTIyJTJDJTIybWV0YWRhdGElMjIlM0ElMjIlMjIlMkMlMjJtZXRhRGF0YSUyMiUzQSU1QiU1RCUyQyUyMnRleHQlMjIlM0ElMjJOdW1iZXJsZU1vZGVsVGVzdF9FcnJvclZhbGlkT24lMjIlN0QlNUQlN0QlNUQ=&quot;&gt;NumberleModelTest_ErrorValidOn&lt;/span&gt;&lt;span style=&quot;background-color: initial;&quot;&gt;(): void&lt;/span&gt;&lt;br&gt;&lt;/p&gt;" style="verticalAlign=top;align=left;overflow=fill;fontSize=14;fontFamily=Helvetica;html=1;rounded=0;shadow=0;comic=0;labelBackgroundColor=none;strokeWidth=1;" vertex="1" parent="1">
          <mxGeometry x="1075" y="505" width="277" height="135" as="geometry" />
        </mxCell>
        <mxCell id="peYF-icMhrGueYidbXqp-45" value="" style="html=1;rounded=0;edgeStyle=orthogonalEdgeStyle;dashed=0;startArrow=diamondThin;endArrow=none;endSize=12;strokeColor=#595959;exitX=0.5;exitY=0;exitDx=0;exitDy=0;startFill=1;startSize=12;endFill=0;" edge="1" parent="1" source="peYF-icMhrGueYidbXqp-7">
          <mxGeometry width="50" height="50" relative="1" as="geometry">
            <mxPoint x="1250" y="665" as="sourcePoint" />
            <mxPoint x="1214" y="641" as="targetPoint" />
          </mxGeometry>
        </mxCell>
        <mxCell id="peYF-icMhrGueYidbXqp-46" value="&lt;font style=&quot;font-size: 14px;&quot;&gt;1&lt;/font&gt;" style="edgeLabel;resizable=0;html=1;align=left;verticalAlign=top;strokeColor=default;" vertex="1" connectable="0" parent="1">
          <mxGeometry x="1219" y="667" as="geometry" />
        </mxCell>
        <mxCell id="peYF-icMhrGueYidbXqp-47" value="&lt;font style=&quot;font-size: 14px;&quot;&gt;1&lt;/font&gt;" style="edgeLabel;resizable=0;html=1;align=left;verticalAlign=top;strokeColor=default;" vertex="1" connectable="0" parent="1">
          <mxGeometry x="1219" y="635" as="geometry" />
        </mxCell>
      </root>
    </mxGraphModel>
  </diagram>
</mxfile>
